<svg width="18" height="18" viewBox="0 0 18 18" fill="none" xmlns="http://www.w3.org/2000/svg">
<path fill-rule="evenodd" clip-rule="evenodd" d="M4.73717 5.78849C4.34421 5.6575 3.91947 5.86987 3.78849 6.26283C3.6575 6.65579 3.86987 7.08053 4.26283 7.21151C5.13186 7.50119 6.00183 7.71105 6.87223 7.84109L6.00754 13.8939C5.94896 14.304 6.23388 14.6839 6.64393 14.7425C7.05398 14.801 7.43388 14.5161 7.49246 14.1061L7.82904 11.75H10.171L10.5075 14.1061C10.5661 14.5161 10.946 14.801 11.3561 14.7425C11.7661 14.6839 12.051 14.304 11.9925 13.8939L11.1278 7.84109C11.9982 7.71105 12.8681 7.50119 13.7372 7.21151C14.1301 7.08053 14.3425 6.65579 14.2115 6.26283C14.0805 5.86987 13.6558 5.6575 13.2628 5.78849C10.4168 6.73717 7.58322 6.73717 4.73717 5.78849ZM8.04333 10.25L8.36677 7.98593C8.78891 8.00469 9.21109 8.00469 9.63323 7.98593L9.95667 10.25H8.04333Z" fill="#86878B"/>
<path d="M9 6C9.82843 6 10.5 5.32843 10.5 4.5C10.5 3.67157 9.82843 3 9 3C8.17157 3 7.5 3.67157 7.5 4.5C7.5 5.32843 8.17157 6 9 6Z" fill="#86878B"/>
<path fill-rule="evenodd" clip-rule="evenodd" d="M18 9C18 13.9706 13.9706 18 9 18C4.02944 18 0 13.9706 0 9C0 4.02944 4.02944 0 9 0C13.9706 0 18 4.02944 18 9ZM16.5 9C16.5 13.1421 13.1421 16.5 9 16.5C4.85786 16.5 1.5 13.1421 1.5 9C1.5 4.85786 4.85786 1.5 9 1.5C13.1421 1.5 16.5 4.85786 16.5 9Z" fill="#86878B"/>
</svg>
