<svg width="22" height="23" viewBox="0 0 22 23" fill="none" xmlns="http://www.w3.org/2000/svg">
<path fill-rule="evenodd" clip-rule="evenodd" d="M13.0464 2.73574C11.0684 2.2739 8.99231 2.49474 7.15573 3.36235C5.31915 4.22996 3.83007 5.69332 2.93058 7.5145C2.0311 9.33568 1.77411 11.4076 2.20141 13.3933C2.62871 15.3791 3.71516 17.1619 5.28412 18.4519C6.85308 19.7419 8.81228 20.4632 10.8432 20.4986C12.8741 20.534 14.8572 19.8814 16.4702 18.6469C16.9087 18.3112 17.5364 18.3946 17.8721 18.8332C18.2077 19.2717 18.1243 19.8994 17.6858 20.235C15.7144 21.7439 13.2905 22.5416 10.8083 22.4983C8.32612 22.4551 5.93154 21.5734 4.01392 19.9967C2.09631 18.4201 0.76842 16.2411 0.246166 13.8141C-0.276087 11.387 0.0380058 8.85471 1.13738 6.62883C2.23675 4.40294 4.05674 2.61439 6.30145 1.55398C8.54615 0.493568 11.0836 0.223654 13.5011 0.788124C15.9187 1.35259 18.0742 2.71825 19.6172 4.66306C21.1602 6.60786 22 9.01743 22 11.5C22 13.2734 21.5578 14.6281 20.7128 15.506C19.8469 16.4056 18.7022 16.6551 17.6546 16.4874C16.5949 16.3179 15.5113 15.6849 14.7962 14.7542C13.8792 15.8229 12.5187 16.5 11 16.5C8.23859 16.5 6.00001 14.2614 6.00001 11.5C6.00001 8.73859 8.23859 6.50001 11 6.50001C13.7614 6.50001 16 8.73859 16 11.5C16 11.7159 15.9863 11.9285 15.9598 12.1371L15.99 12.1415C15.8366 13.215 16.8002 14.3253 17.9706 14.5126C18.4854 14.5949 18.9345 14.4695 19.2718 14.119C19.6289 13.748 19.9981 12.9808 20.0001 11.5121C20 11.5081 20 11.5041 20 11.5C20 9.46881 19.3129 7.49734 18.0504 5.90614C16.788 4.31494 15.0244 3.19758 13.0464 2.73574ZM11 14.5C12.6569 14.5 14 13.1569 14 11.5C14 9.84316 12.6569 8.50001 11 8.50001C9.34316 8.50001 8.00001 9.84316 8.00001 11.5C8.00001 13.1569 9.34316 14.5 11 14.5Z" fill="#161722"/>
</svg>
