<svg width="52" height="11" viewBox="0 0 52 11" fill="none" xmlns="http://www.w3.org/2000/svg">
<path d="M4.73 10H0.17V-0.00500083H4.625C5.485 -0.00500083 6.165 0.229999 6.665 0.7C7.175 1.17 7.43 1.785 7.43 2.545C7.43 3.145 7.26 3.655 6.92 4.075C6.58 4.485 6.165 4.74 5.675 4.84C6.205 4.92 6.66 5.2 7.04 5.68C7.43 6.16 7.625 6.7 7.625 7.3C7.625 8.11 7.365 8.765 6.845 9.265C6.335 9.755 5.63 10 4.73 10ZM4.415 4.33C4.965 4.33 5.39 4.18 5.69 3.88C5.99 3.58 6.14 3.195 6.14 2.725C6.14 2.255 5.985 1.87 5.675 1.57C5.375 1.26 4.955 1.105 4.415 1.105H1.415V4.33H4.415ZM4.475 8.89C5.055 8.89 5.51 8.735 5.84 8.425C6.17 8.115 6.335 7.695 6.335 7.165C6.335 6.675 6.17 6.265 5.84 5.935C5.52 5.605 5.065 5.44 4.475 5.44H1.415V8.89H4.475ZM15.2136 10H14.0886V9.175C13.4786 9.845 12.6786 10.18 11.6886 10.18C11.0186 10.18 10.4286 9.965 9.91859 9.535C9.40859 9.105 9.15359 8.52 9.15359 7.78C9.15359 7.02 9.40359 6.435 9.90359 6.025C10.4136 5.605 11.0086 5.395 11.6886 5.395C12.7186 5.395 13.5186 5.725 14.0886 6.385V5.08C14.0886 4.6 13.9186 4.225 13.5786 3.955C13.2386 3.685 12.7986 3.55 12.2586 3.55C11.4086 3.55 10.6686 3.885 10.0386 4.555L9.51359 3.775C10.2836 2.975 11.2486 2.575 12.4086 2.575C13.2386 2.575 13.9136 2.775 14.4336 3.175C14.9536 3.575 15.2136 4.19 15.2136 5.02V10ZM12.0936 9.37C12.9936 9.37 13.6586 9.07 14.0886 8.47V7.105C13.6586 6.505 12.9936 6.205 12.0936 6.205C11.5736 6.205 11.1436 6.355 10.8036 6.655C10.4736 6.945 10.3086 7.325 10.3086 7.795C10.3086 8.255 10.4736 8.635 10.8036 8.935C11.1436 9.225 11.5736 9.37 12.0936 9.37ZM18.5938 10H17.4688V-0.00500083H18.5938V10ZM26.4929 10H25.3679V9.175C24.7579 9.845 23.9579 10.18 22.9679 10.18C22.2979 10.18 21.7079 9.965 21.1979 9.535C20.6879 9.105 20.4329 8.52 20.4329 7.78C20.4329 7.02 20.6829 6.435 21.1829 6.025C21.6929 5.605 22.2879 5.395 22.9679 5.395C23.9979 5.395 24.7979 5.725 25.3679 6.385V5.08C25.3679 4.6 25.1979 4.225 24.8579 3.955C24.5179 3.685 24.0779 3.55 23.5379 3.55C22.6879 3.55 21.9479 3.885 21.3179 4.555L20.7929 3.775C21.5629 2.975 22.5279 2.575 23.6879 2.575C24.5179 2.575 25.1929 2.775 25.7129 3.175C26.2329 3.575 26.4929 4.19 26.4929 5.02V10ZM23.3729 9.37C24.2729 9.37 24.9379 9.07 25.3679 8.47V7.105C24.9379 6.505 24.2729 6.205 23.3729 6.205C22.8529 6.205 22.4229 6.355 22.0829 6.655C21.7529 6.945 21.5879 7.325 21.5879 7.795C21.5879 8.255 21.7529 8.635 22.0829 8.935C22.4229 9.225 22.8529 9.37 23.3729 9.37ZM34.763 10H33.638V5.26C33.638 4.65 33.498 4.22 33.218 3.97C32.938 3.71 32.538 3.58 32.018 3.58C31.598 3.58 31.188 3.69 30.788 3.91C30.398 4.13 30.093 4.395 29.873 4.705V10H28.748V2.755H29.873V3.805C30.153 3.475 30.528 3.19 30.998 2.95C31.468 2.7 31.953 2.575 32.453 2.575C33.993 2.575 34.763 3.355 34.763 4.915V10ZM40.2048 10.18C39.1348 10.18 38.2648 9.82 37.5948 9.1C36.9248 8.37 36.5898 7.46 36.5898 6.37C36.5898 5.28 36.9248 4.375 37.5948 3.655C38.2648 2.935 39.1348 2.575 40.2048 2.575C41.3248 2.575 42.2098 2.995 42.8598 3.835L42.1098 4.525C41.6498 3.895 41.0348 3.58 40.2648 3.58C39.5048 3.58 38.8948 3.84 38.4348 4.36C37.9848 4.88 37.7598 5.55 37.7598 6.37C37.7598 7.19 37.9848 7.865 38.4348 8.395C38.8948 8.915 39.5048 9.175 40.2648 9.175C41.0248 9.175 41.6398 8.86 42.1098 8.23L42.8598 8.92C42.2098 9.76 41.3248 10.18 40.2048 10.18ZM47.7065 10.18C46.6265 10.18 45.7415 9.83 45.0515 9.13C44.3615 8.42 44.0165 7.5 44.0165 6.37C44.0165 5.31 44.3565 4.415 45.0365 3.685C45.7165 2.945 46.5665 2.575 47.5865 2.575C48.6565 2.575 49.5015 2.945 50.1215 3.685C50.7515 4.415 51.0665 5.34 51.0665 6.46V6.745H45.2015C45.2515 7.455 45.5115 8.05 45.9815 8.53C46.4515 9.01 47.0615 9.25 47.8115 9.25C48.7115 9.25 49.4565 8.945 50.0465 8.335L50.5865 9.07C49.8465 9.81 48.8865 10.18 47.7065 10.18ZM49.9565 5.92C49.9465 5.3 49.7365 4.745 49.3265 4.255C48.9165 3.755 48.3315 3.505 47.5715 3.505C46.8515 3.505 46.2815 3.75 45.8615 4.24C45.4515 4.73 45.2315 5.29 45.2015 5.92H49.9565Z" fill="#161722"/>
</svg>
