<svg width="33" height="43" viewBox="0 0 33 43" fill="none" xmlns="http://www.w3.org/2000/svg">
<path fill-rule="evenodd" clip-rule="evenodd" d="M19.9271 3.45857L16.5724 0.988917C15.2375 0.00616068 13.3551 0.980736 13.3871 2.6381L13.4674 6.80302L10.082 9.23034C8.73479 10.1963 9.07998 12.2876 10.6661 12.7694L13.466 13.6198L4.79289 22.2929C4.40237 22.6835 4.40237 23.3166 4.79289 23.7071C5.18342 24.0977 5.81658 24.0977 6.20711 23.7071L14.9614 14.9529L15.9144 17.9499C16.4167 19.5296 18.5124 19.8476 19.4607 18.488L21.8438 15.0712L26.0094 15.0974C27.6671 15.1078 28.6171 13.2129 27.6171 11.8909L25.104 8.56862L26.4161 4.61496C26.9383 3.04168 25.4297 1.5526 23.8633 2.09515L19.9271 3.45857ZM24.5179 3.985L19.5881 5.69255L15.3867 2.59954L15.4873 7.81573L11.2473 10.8557L16.2393 12.372L17.8203 17.3438L20.8049 13.0647L26.022 13.0974L22.8746 8.93659L24.5179 3.985Z" fill="white"/>
<path fill-rule="evenodd" clip-rule="evenodd" d="M21.4554 18.9849C20.7221 18.9849 20.0964 19.5154 19.9765 20.2388L19.5171 23.0111C19.3658 23.9243 20.0702 24.7552 20.996 24.7552H21.2675C22.0082 24.7552 22.6378 24.2142 22.7495 23.4821L23.1721 20.7098C23.3104 19.8024 22.6081 18.9849 21.6902 18.9849H21.4554ZM21.6902 20.3486H21.4554C21.3892 20.3486 21.3327 20.3965 21.3219 20.4618L20.8625 23.234C20.8488 23.3165 20.9124 23.3915 20.996 23.3915H21.2675C21.3344 23.3915 21.3912 23.3426 21.4013 23.2765L21.824 20.5043C21.8364 20.4224 21.773 20.3486 21.6902 20.3486Z" fill="white"/>
<path d="M26.3949 18.9849H24.1203C24.0662 18.9849 24.0203 19.0244 24.0124 19.0778L23.183 24.6299C23.1731 24.6959 23.2242 24.7552 23.2909 24.7552H24.3281C24.3813 24.7552 24.4268 24.7167 24.4356 24.6642L24.8056 22.4746C24.8145 22.4221 24.8599 22.3837 24.9132 22.3837H25.7941C25.847 22.3837 25.8923 22.3457 25.9015 22.2937L26.0721 21.3324C26.084 21.2656 26.0326 21.2043 25.9647 21.2043H25.1461C25.0791 21.2043 25.0279 21.1445 25.0383 21.0783L25.1734 20.2185C25.1817 20.1654 25.2274 20.1263 25.2811 20.1263H26.2256C26.2783 20.1263 26.3234 20.0887 26.3329 20.0369L26.5022 19.1136C26.5145 19.0466 26.4631 18.9849 26.3949 18.9849Z" fill="white"/>
<path d="M29.3605 18.9849H27.0858C27.0318 18.9849 26.9859 19.0244 26.9779 19.0778L26.1485 24.6299C26.1387 24.6959 26.1897 24.7552 26.2564 24.7552H27.2936C27.3468 24.7552 27.3923 24.7167 27.4012 24.6642L27.7711 22.4746C27.78 22.4221 27.8255 22.3837 27.8787 22.3837H28.7596C28.8125 22.3837 28.8578 22.3457 28.8671 22.2937L29.0377 21.3324C29.0495 21.2656 28.9981 21.2043 28.9302 21.2043H28.1116C28.0446 21.2043 27.9934 21.1445 28.0038 21.0783L28.1389 20.2185C28.1472 20.1654 28.1929 20.1263 28.2467 20.1263H29.1911C29.2438 20.1263 29.2889 20.0887 29.2984 20.0369L29.4678 19.1136C29.48 19.0466 29.4286 18.9849 29.3605 18.9849Z" fill="white"/>
<path d="M4.33762 40H0.717617V33.33H4.22762C4.83428 33.33 5.30428 33.4967 5.63762 33.83C5.97762 34.1567 6.14762 34.5567 6.14762 35.03C6.14762 35.4367 6.03762 35.7767 5.81762 36.05C5.59762 36.3233 5.32428 36.4933 4.99762 36.56C5.35762 36.6133 5.66095 36.7967 5.90762 37.11C6.15428 37.4233 6.27762 37.7867 6.27762 38.2C6.27762 38.72 6.10762 39.15 5.76762 39.49C5.42762 39.83 4.95095 40 4.33762 40ZM3.91762 36C4.15762 36 4.34762 35.9333 4.48762 35.8C4.62762 35.6667 4.69762 35.4933 4.69762 35.28C4.69762 35.0667 4.62428 34.8933 4.47762 34.76C4.33762 34.62 4.15095 34.55 3.91762 34.55H2.13762V36H3.91762ZM3.96762 38.77C4.23428 38.77 4.44428 38.7033 4.59762 38.57C4.75095 38.43 4.82762 38.24 4.82762 38C4.82762 37.78 4.75095 37.5967 4.59762 37.45C4.44428 37.2967 4.23428 37.22 3.96762 37.22H2.13762V38.77H3.96762ZM9.58848 40.12C8.84181 40.12 8.22514 39.8867 7.73848 39.42C7.25181 38.9533 7.00848 38.34 7.00848 37.58C7.00848 36.8667 7.24181 36.2667 7.70848 35.78C8.18181 35.2933 8.78181 35.05 9.50848 35.05C10.2285 35.05 10.8118 35.2967 11.2585 35.79C11.7051 36.2767 11.9285 36.9167 11.9285 37.71V37.99H8.33848C8.37848 38.31 8.52181 38.5767 8.76848 38.79C9.01514 39.0033 9.33514 39.11 9.72848 39.11C9.94181 39.11 10.1718 39.0667 10.4185 38.98C10.6718 38.8933 10.8718 38.7767 11.0185 38.63L11.5785 39.45C11.0918 39.8967 10.4285 40.12 9.58848 40.12ZM10.6985 37.13C10.6785 36.8567 10.5685 36.61 10.3685 36.39C10.1751 36.17 9.88848 36.06 9.50848 36.06C9.14848 36.06 8.86848 36.17 8.66848 36.39C8.46848 36.6033 8.35181 36.85 8.31848 37.13H10.6985ZM17.0158 40H15.7458V39.5C15.3992 39.9133 14.8892 40.12 14.2158 40.12C13.7825 40.12 13.3925 39.98 13.0458 39.7C12.7058 39.4133 12.5358 39.02 12.5358 38.52C12.5358 38 12.7025 37.61 13.0358 37.35C13.3758 37.09 13.7692 36.96 14.2158 36.96C14.9025 36.96 15.4125 37.1567 15.7458 37.55V36.9C15.7458 36.6533 15.6492 36.4567 15.4558 36.31C15.2625 36.1633 15.0058 36.09 14.6858 36.09C14.1592 36.09 13.6892 36.28 13.2758 36.66L12.7958 35.81C13.3692 35.3033 14.0725 35.05 14.9058 35.05C15.5258 35.05 16.0325 35.1933 16.4258 35.48C16.8192 35.7667 17.0158 36.2333 17.0158 36.88V40ZM14.7258 39.26C15.1992 39.26 15.5392 39.12 15.7458 38.84V38.24C15.5392 37.96 15.1992 37.82 14.7258 37.82C14.4658 37.82 14.2492 37.8867 14.0758 38.02C13.9025 38.1467 13.8158 38.3233 13.8158 38.55C13.8158 38.77 13.9025 38.9433 14.0758 39.07C14.2492 39.1967 14.4658 39.26 14.7258 39.26ZM22.8055 40H21.5355V39.39C21.1022 39.8767 20.5355 40.12 19.8355 40.12C19.3155 40.12 18.9255 39.9867 18.6655 39.72C18.4055 39.4533 18.2755 39.08 18.2755 38.6V35.17H19.5455V38.1C19.5455 38.6933 19.8422 38.99 20.4355 38.99C20.8822 38.99 21.2488 38.8067 21.5355 38.44V35.17H22.8055V40ZM25.6865 40.12C25.2399 40.12 24.8999 40.0067 24.6665 39.78C24.4332 39.5533 24.3165 39.2267 24.3165 38.8V36.28H23.5165V35.17H24.3165V33.85H25.5965V35.17H26.5765V36.28H25.5965V38.46C25.5965 38.6133 25.6365 38.74 25.7165 38.84C25.7965 38.94 25.9032 38.99 26.0365 38.99C26.2365 38.99 26.3832 38.9433 26.4765 38.85L26.7465 39.81C26.5132 40.0167 26.1599 40.12 25.6865 40.12ZM27.2754 41.89L27.4654 40.75C27.5854 40.8033 27.7188 40.83 27.8654 40.83C28.2054 40.83 28.4288 40.7133 28.5354 40.48L28.7154 40.07L26.7554 35.17H28.1154L29.3754 38.53L30.6354 35.17H32.0054L29.7354 40.79C29.5688 41.2167 29.3354 41.5133 29.0354 41.68C28.7354 41.8533 28.3588 41.9467 27.9054 41.96C27.6721 41.96 27.4621 41.9367 27.2754 41.89Z" fill="white"/>
</svg>
