<svg width="11" height="14" viewBox="0 0 11 14" fill="none" xmlns="http://www.w3.org/2000/svg">
<path fill-rule="evenodd" clip-rule="evenodd" d="M0 2C0 1.0335 0.783502 0.25 1.75 0.25H8.75C9.7165 0.25 10.5 1.0335 10.5 2V12.2955C10.5 13.0029 9.68648 13.4007 9.12815 12.9665L5.25 9.95015L1.37185 12.9665C0.813521 13.4007 0 13.0029 0 12.2955V2ZM1.75 1.75C1.61193 1.75 1.5 1.86193 1.5 2V10.9665L4.48257 8.64674C4.93396 8.29566 5.56604 8.29566 6.01743 8.64674L9 10.9665V2C9 1.86193 8.88807 1.75 8.75 1.75H1.75Z" fill="#161722"/>
</svg>
