<svg width="17" height="21" viewBox="0 0 17 21" fill="none" xmlns="http://www.w3.org/2000/svg">
<path fill-rule="evenodd" clip-rule="evenodd" d="M0.25 3C0.25 1.48122 1.48122 0.25 3 0.25H14C15.5188 0.25 16.75 1.48122 16.75 3V19.405C16.75 20.4762 15.4908 21.0512 14.6813 20.3496L9.31866 15.702C8.84883 15.2948 8.15117 15.2948 7.68134 15.702L2.31866 20.3496C1.5092 21.0512 0.25 20.4762 0.25 19.405V3ZM3 1.75C2.30964 1.75 1.75 2.30964 1.75 3V18.8575L6.69894 14.5684C7.73256 13.6726 9.26744 13.6726 10.3011 14.5684L15.25 18.8575V3C15.25 2.30964 14.6904 1.75 14 1.75H3Z" fill="#161722"/>
</svg>
