<svg width="25" height="23" viewBox="0 0 25 23" fill="none" xmlns="http://www.w3.org/2000/svg">
<path fill-rule="evenodd" clip-rule="evenodd" d="M4.60722 2.46497C3.02731 3.36497 1.75 5.44994 1.75 8.50006C1.75 9.55936 2.14709 10.6989 2.8656 11.8913C3.58217 13.0805 4.59114 14.2768 5.7465 15.4358C7.91402 17.61 10.5214 19.5796 12.5004 21.063C12.5154 21.0518 12.5304 21.0406 12.5454 21.0293C14.5044 19.5647 16.9643 17.7254 18.9946 15.6314C21.1981 13.3587 22.7501 10.9301 22.7501 8.49988C22.7501 5.46093 21.3602 3.39409 19.6824 2.60967C18.0983 1.86904 16.0333 2.16962 14.2449 4.27537C14.1555 4.38061 13.9983 4.39857 13.8905 4.31232L13.1096 3.68762C13.0018 3.60137 12.9845 3.44335 13.0734 3.33776C15.2283 0.780293 18.0063 0.170193 20.3177 1.25085C22.6399 2.33657 24.2501 5.01964 24.2501 8.49988C24.2501 11.5427 22.3362 14.3397 20.0715 16.6756C17.9539 18.8597 15.4021 20.7669 13.456 22.2215C13.303 22.3358 13.1538 22.4474 13.0088 22.556C12.7085 22.7811 12.2955 22.7841 11.9915 22.5561C11.9138 22.4979 11.8347 22.4386 11.7543 22.3784C9.76869 20.8907 6.99439 18.8121 4.68421 16.4948C3.48101 15.2879 2.3823 13.9955 1.58083 12.6655C0.781301 11.3387 0.25 9.92853 0.25 8.50006C0.25 5.04725 1.70899 2.38965 3.86475 1.16161C6.05715 -0.0872887 8.78723 0.250015 10.9976 2.43699C11.1557 2.59346 11.25 2.81021 11.25 3.04134V5.61408L14.3546 7.83162C14.7366 8.10448 14.825 8.63535 14.5522 9.01735L12.3728 12.0685L14.059 15.441C14.1208 15.5645 14.0707 15.7147 13.9472 15.7764L13.0528 16.2237C12.9293 16.2854 12.7791 16.2353 12.7174 16.1119L10.8561 12.3893C10.7153 12.1077 10.7417 11.7713 10.9247 11.5151L12.9538 8.67442L10.1059 6.64026C9.88257 6.48071 9.75 6.2231 9.75 5.94859V3.31973C8.01262 1.72569 6.0953 1.61728 4.60722 2.46497Z" fill="#161722"/>
</svg>
