<svg width="151" height="119" viewBox="0 0 151 119" fill="none" xmlns="http://www.w3.org/2000/svg">
<g filter="url(#filter0_d_4_452)">
<path d="M18.3301 6C13.9118 6 10.3301 9.58172 10.3301 14V86C10.3301 90.4183 13.9118 94 18.3301 94H68.374L75.3303 104.931L82.2866 94H132.33C136.748 94 140.33 90.4183 140.33 86V14C140.33 9.58172 136.748 6 132.33 6H18.3301Z" fill="white"/>
</g>
<mask id="mask0_4_452" style="mask-type:alpha" maskUnits="userSpaceOnUse" x="10" y="6" width="131" height="99">
<path d="M18.3301 6C13.9118 6 10.3301 9.58172 10.3301 14V86C10.3301 90.4183 13.9118 94 18.3301 94H68.374L75.3303 104.931L82.2866 94H132.33C136.748 94 140.33 90.4183 140.33 86V14C140.33 9.58172 136.748 6 132.33 6H18.3301Z" fill="white"/>
</mask>
<g mask="url(#mask0_4_452)">
<path d="M7.14548 28.3294C5.74643 27.3755 4.60888 26.7801 3.70128 26.5193C2.79999 26.2603 2.00174 26.3013 1.4455 26.8215C0.91843 27.3144 0.76325 28.1041 0.774487 28.9437C0.786035 29.8066 0.975345 30.8549 1.28116 32.0129C2.47533 36.5347 5.57416 43.1761 7.92838 48.2216L8.12069 48.6338L8.18656 48.6978C8.65634 49.1542 9.47541 49.8222 10.4337 50.3718C11.3818 50.9155 12.5299 51.3801 13.6394 51.3455C14.9802 51.3036 16.2957 50.7738 17.2 49.525C18.0942 48.2902 18.5333 46.4252 18.2994 43.8133C17.9137 39.506 15.5977 34.092 7.14548 28.3294Z" fill="#65D2E9"/>
<path d="M44.7064 2.32495H12.4102L12.7514 3.04024C14.8988 7.54156 18.9691 14.279 24.2181 19.8873C29.4519 25.4794 35.9485 30.0451 42.948 29.9944C46.4554 29.9689 48.7497 28.796 50.0441 26.8024C51.316 24.8436 51.5485 22.2006 51.2018 19.3801C50.5075 13.7313 47.4446 7.019 44.8511 2.57302L44.7064 2.32495Z" fill="#65D2E9"/>
<path d="M18.9632 -0.0769339L18.6158 -0.25708L7.43848 12.4623L7.59822 12.7665C8.90373 15.2533 11.3163 19.028 14.2452 21.9528C17.1418 24.8453 20.7104 27.0685 24.2788 26.042C26.7436 25.333 28.0456 23.4676 28.5046 21.1157C28.9583 18.7908 28.6027 15.9563 27.7693 13.1448C26.9335 10.3249 25.6032 7.48074 24.0578 5.11869C22.5207 2.76923 20.7348 0.84169 18.9632 -0.0769339Z" fill="#E6436D"/>
<path fill-rule="evenodd" clip-rule="evenodd" d="M21.9182 2.32495H16.3468L13.8339 5.18452C16.1348 9.51942 19.7493 15.1125 24.2181 19.8873C25.3375 21.0834 26.5148 22.2326 27.7424 23.2997C28.1001 22.6438 28.3501 21.9073 28.5046 21.1157C28.9583 18.7908 28.6027 15.9563 27.7693 13.1448C26.9335 10.3249 25.6032 7.48074 24.0578 5.11869C23.3849 4.09017 22.6643 3.14251 21.9182 2.32495Z" fill="#161722"/>
<path d="M100.672 -2.44259L100.522 -2.72656L38.5381 0.928192L38.571 1.43036C38.8532 5.74184 40.6614 14.9759 48.0127 21.2238C50.6891 23.4984 53.2819 23.866 56.3462 24.3004C56.7625 24.3594 57.1875 24.4197 57.6226 24.4861C61.2621 25.0418 65.8119 26.0357 72.364 30.2588C75.3575 32.1882 77.4641 33.6989 79.069 34.8875C79.5153 35.218 79.9254 35.5257 80.3068 35.8118C81.2873 36.5474 82.0774 37.1401 82.801 37.6103C83.8259 38.2762 84.7452 38.7162 85.943 39.0138C87.1252 39.3076 88.5638 39.4587 90.6171 39.5717C94.9646 39.811 101.519 36.8808 104.954 30.0887C108.403 23.2688 108.671 12.6549 100.672 -2.44259Z" fill="#E6436D"/>
<path d="M144.216 4.04565H85.9077L86.0934 4.68507C86.6591 6.6335 87.9433 9.82674 89.9664 13.1302C91.989 16.4327 94.7686 19.8757 98.3379 22.2887C102.337 24.9926 105.794 25.7755 108.913 26.4818C109.267 26.5619 109.616 26.641 109.961 26.7218C113.327 27.5097 116.343 28.4599 119.505 32.0376C121.799 34.6333 123.359 37.3627 124.688 40.0187C125.103 40.8459 125.497 41.6724 125.886 42.4872C126.736 44.2663 127.559 45.9898 128.501 47.5433C129.887 49.8312 131.568 51.8193 134.065 53.2271C136.56 54.6331 139.824 55.4346 144.337 55.4346H144.843L144.216 4.04565Z" fill="#65D2E9"/>
<path fill-rule="evenodd" clip-rule="evenodd" d="M103.729 4.04565L85.9077 4.04565L86.0934 4.68507C86.6591 6.6335 87.9433 9.82674 89.9664 13.1302C91.989 16.4327 94.7686 19.8757 98.3379 22.2887C101.338 24.3173 104.034 25.2646 106.51 25.9095C107.905 20.424 107.477 13.2037 103.729 4.04565Z" fill="#161722"/>
<path d="M117.185 32.7021C118.92 36.4132 118.374 40.2047 116.246 41.199C113.929 42.2822 110.657 40.3095 108.923 36.5984C107.874 34.3556 106.696 29.3356 109.35 28.0951C112.004 26.8545 115.451 28.991 117.185 32.7021Z" fill="#65D2E9"/>
<path d="M58.9878 30.9226C60.1039 33.3104 59.8524 35.7957 58.5486 36.405C57.1284 37.0689 54.98 35.1865 53.9242 33.3104C53.7004 32.9127 52.5594 28.8594 54.186 28.0992C55.8126 27.3389 57.9249 28.6483 58.9878 30.9226Z" fill="#E6436D"/>
</g>
<path d="M26.6127 60H24.3247V51.328H21.2047V49.328H29.7167V51.328H26.6127V60ZM37.0472 60H35.0152V59.2C34.4605 59.8613 33.6445 60.192 32.5672 60.192C31.8739 60.192 31.2499 59.968 30.6952 59.52C30.1512 59.0613 29.8792 58.432 29.8792 57.632C29.8792 56.8 30.1459 56.176 30.6792 55.76C31.2232 55.344 31.8525 55.136 32.5672 55.136C33.6659 55.136 34.4819 55.4507 35.0152 56.08V55.04C35.0152 54.6453 34.8605 54.3307 34.5512 54.096C34.2419 53.8613 33.8312 53.744 33.3192 53.744C32.4765 53.744 31.7245 54.048 31.0632 54.656L30.2952 53.296C31.2125 52.4853 32.3379 52.08 33.6712 52.08C34.6632 52.08 35.4739 52.3093 36.1032 52.768C36.7325 53.2267 37.0472 53.9733 37.0472 55.008V60ZM33.3832 58.816C34.1405 58.816 34.6845 58.592 35.0152 58.144V57.184C34.6845 56.736 34.1405 56.512 33.3832 56.512C32.9672 56.512 32.6205 56.6187 32.3432 56.832C32.0659 57.0347 31.9272 57.3173 31.9272 57.68C31.9272 58.032 32.0659 58.3093 32.3432 58.512C32.6205 58.7147 32.9672 58.816 33.3832 58.816ZM43.9787 60.192C43.008 60.192 42.2134 59.7973 41.5947 59.008V62.944H39.5627V52.272H41.5947V53.248C42.2027 52.4693 42.9974 52.08 43.9787 52.08C44.992 52.08 45.8134 52.4427 46.4427 53.168C47.0827 53.8827 47.4027 54.8693 47.4027 56.128C47.4027 57.3867 47.0827 58.3787 46.4427 59.104C45.8134 59.8293 44.992 60.192 43.9787 60.192ZM43.3387 58.384C43.9254 58.384 44.3947 58.176 44.7467 57.76C45.1094 57.344 45.2907 56.8 45.2907 56.128C45.2907 55.4667 45.1094 54.928 44.7467 54.512C44.3947 54.096 43.9254 53.888 43.3387 53.888C43.008 53.888 42.6774 53.9733 42.3467 54.144C42.016 54.3147 41.7654 54.5227 41.5947 54.768V57.504C41.7654 57.7493 42.016 57.9573 42.3467 58.128C42.688 58.2987 43.0187 58.384 43.3387 58.384ZM56.5766 60.192C55.8619 60.192 55.3179 60.0107 54.9446 59.648C54.5712 59.2853 54.3846 58.7627 54.3846 58.08V54.048H53.1046V52.272H54.3846V50.16H56.4326V52.272H58.0006V54.048H56.4326V57.536C56.4326 57.7813 56.4966 57.984 56.6246 58.144C56.7526 58.304 56.9232 58.384 57.1366 58.384C57.4566 58.384 57.6912 58.3093 57.8406 58.16L58.2726 59.696C57.8992 60.0267 57.3339 60.192 56.5766 60.192ZM66.4508 59.024C65.7041 59.8027 64.7121 60.192 63.4748 60.192C62.2375 60.192 61.2455 59.8027 60.4988 59.024C59.7628 58.2347 59.3948 57.2693 59.3948 56.128C59.3948 54.9867 59.7628 54.0267 60.4988 53.248C61.2455 52.4693 62.2375 52.08 63.4748 52.08C64.7121 52.08 65.7041 52.4693 66.4508 53.248C67.1975 54.0267 67.5708 54.9867 67.5708 56.128C67.5708 57.2693 67.1975 58.2347 66.4508 59.024ZM62.0348 57.744C62.3868 58.1707 62.8668 58.384 63.4748 58.384C64.0828 58.384 64.5628 58.1707 64.9148 57.744C65.2775 57.3067 65.4588 56.768 65.4588 56.128C65.4588 55.4987 65.2775 54.9707 64.9148 54.544C64.5628 54.1067 64.0828 53.888 63.4748 53.888C62.8668 53.888 62.3868 54.1067 62.0348 54.544C61.6828 54.9707 61.5068 55.4987 61.5068 56.128C61.5068 56.768 61.6828 57.3067 62.0348 57.744ZM77.7721 60.192C76.5774 60.192 75.5961 59.8133 74.8281 59.056C74.0601 58.2987 73.6761 57.3227 73.6761 56.128C73.6761 54.944 74.0601 53.9733 74.8281 53.216C75.5961 52.4587 76.5774 52.08 77.7721 52.08C79.1374 52.08 80.1561 52.544 80.8281 53.472L79.5001 54.72C79.1267 54.1653 78.5827 53.888 77.8681 53.888C77.2494 53.888 76.7427 54.096 76.3481 54.512C75.9641 54.9173 75.7721 55.456 75.7721 56.128C75.7721 56.8 75.9641 57.344 76.3481 57.76C76.7427 58.176 77.2494 58.384 77.8681 58.384C78.5614 58.384 79.1054 58.1067 79.5001 57.552L80.8281 58.784C80.1561 59.7227 79.1374 60.192 77.7721 60.192ZM84.6884 60H82.6564V52.272H84.6884V53.328C84.9764 52.9653 85.3444 52.6667 85.7924 52.432C86.2404 52.1973 86.6938 52.08 87.1524 52.08V54.064C87.0138 54.032 86.8271 54.016 86.5924 54.016C86.2511 54.016 85.8884 54.1013 85.5044 54.272C85.1204 54.4427 84.8484 54.6507 84.6884 54.896V60ZM92.5541 60.192C91.3594 60.192 90.3727 59.8187 89.5941 59.072C88.8154 58.3253 88.4261 57.344 88.4261 56.128C88.4261 54.9867 88.7994 54.0267 89.5461 53.248C90.3034 52.4693 91.2634 52.08 92.4261 52.08C93.5781 52.08 94.5114 52.4747 95.2261 53.264C95.9407 54.0427 96.2981 55.0667 96.2981 56.336V56.784H90.5541C90.6181 57.296 90.8474 57.7227 91.2421 58.064C91.6367 58.4053 92.1487 58.576 92.7781 58.576C93.1194 58.576 93.4874 58.5067 93.8821 58.368C94.2874 58.2293 94.6074 58.0427 94.8421 57.808L95.7381 59.12C94.9594 59.8347 93.8981 60.192 92.5541 60.192ZM94.3301 55.408C94.2981 54.9707 94.1221 54.576 93.8021 54.224C93.4927 53.872 93.0341 53.696 92.4261 53.696C91.8501 53.696 91.4021 53.872 91.0821 54.224C90.7621 54.5653 90.5754 54.96 90.5221 55.408H94.3301ZM104.938 60H102.906V59.2C102.351 59.8613 101.535 60.192 100.458 60.192C99.7645 60.192 99.1405 59.968 98.5858 59.52C98.0418 59.0613 97.7698 58.432 97.7698 57.632C97.7698 56.8 98.0365 56.176 98.5698 55.76C99.1138 55.344 99.7431 55.136 100.458 55.136C101.556 55.136 102.372 55.4507 102.906 56.08V55.04C102.906 54.6453 102.751 54.3307 102.442 54.096C102.132 53.8613 101.722 53.744 101.21 53.744C100.367 53.744 99.6151 54.048 98.9538 54.656L98.1858 53.296C99.1031 52.4853 100.228 52.08 101.562 52.08C102.554 52.08 103.364 52.3093 103.994 52.768C104.623 53.2267 104.938 53.9733 104.938 55.008V60ZM101.274 58.816C102.031 58.816 102.575 58.592 102.906 58.144V57.184C102.575 56.736 102.031 56.512 101.274 56.512C100.858 56.512 100.511 56.6187 100.234 56.832C99.9565 57.0347 99.8178 57.3173 99.8178 57.68C99.8178 58.032 99.9565 58.3093 100.234 58.512C100.511 58.7147 100.858 58.816 101.274 58.816ZM110.045 60.192C109.331 60.192 108.787 60.0107 108.413 59.648C108.04 59.2853 107.853 58.7627 107.853 58.08V54.048H106.573V52.272H107.853V50.16H109.901V52.272H111.469V54.048H109.901V57.536C109.901 57.7813 109.965 57.984 110.093 58.144C110.221 58.304 110.392 58.384 110.605 58.384C110.925 58.384 111.16 58.3093 111.309 58.16L111.741 59.696C111.368 60.0267 110.803 60.192 110.045 60.192ZM116.992 60.192C115.797 60.192 114.81 59.8187 114.032 59.072C113.253 58.3253 112.864 57.344 112.864 56.128C112.864 54.9867 113.237 54.0267 113.984 53.248C114.741 52.4693 115.701 52.08 116.864 52.08C118.016 52.08 118.949 52.4747 119.664 53.264C120.378 54.0427 120.736 55.0667 120.736 56.336V56.784H114.992C115.056 57.296 115.285 57.7227 115.68 58.064C116.074 58.4053 116.586 58.576 117.216 58.576C117.557 58.576 117.925 58.5067 118.32 58.368C118.725 58.2293 119.045 58.0427 119.28 57.808L120.176 59.12C119.397 59.8347 118.336 60.192 116.992 60.192ZM118.768 55.408C118.736 54.9707 118.56 54.576 118.24 54.224C117.93 53.872 117.472 53.696 116.864 53.696C116.288 53.696 115.84 53.872 115.52 54.224C115.2 54.5653 115.013 54.96 114.96 55.408H118.768Z" fill="black"/>
<path d="M40.8996 81H39.7746V80.175C39.1646 80.845 38.3646 81.18 37.3746 81.18C36.7046 81.18 36.1146 80.965 35.6046 80.535C35.0946 80.105 34.8396 79.52 34.8396 78.78C34.8396 78.02 35.0896 77.435 35.5896 77.025C36.0996 76.605 36.6946 76.395 37.3746 76.395C38.4046 76.395 39.2046 76.725 39.7746 77.385V76.08C39.7746 75.6 39.6046 75.225 39.2646 74.955C38.9246 74.685 38.4846 74.55 37.9446 74.55C37.0946 74.55 36.3546 74.885 35.7246 75.555L35.1996 74.775C35.9696 73.975 36.9346 73.575 38.0946 73.575C38.9246 73.575 39.5996 73.775 40.1196 74.175C40.6396 74.575 40.8996 75.19 40.8996 76.02V81ZM37.7796 80.37C38.6796 80.37 39.3446 80.07 39.7746 79.47V78.105C39.3446 77.505 38.6796 77.205 37.7796 77.205C37.2596 77.205 36.8296 77.355 36.4896 77.655C36.1596 77.945 35.9946 78.325 35.9946 78.795C35.9946 79.255 36.1596 79.635 36.4896 79.935C36.8296 80.225 37.2596 80.37 37.7796 80.37ZM54.037 81H52.912V76.26C52.912 75.65 52.772 75.22 52.492 74.97C52.212 74.71 51.812 74.58 51.292 74.58C50.872 74.58 50.462 74.69 50.062 74.91C49.672 75.13 49.367 75.395 49.147 75.705V81H48.022V73.755H49.147V74.805C49.427 74.475 49.802 74.19 50.272 73.95C50.742 73.7 51.227 73.575 51.727 73.575C53.267 73.575 54.037 74.355 54.037 75.915V81ZM60.0537 81.18C58.9737 81.18 58.0887 80.83 57.3987 80.13C56.7087 79.42 56.3637 78.5 56.3637 77.37C56.3637 76.31 56.7037 75.415 57.3837 74.685C58.0637 73.945 58.9137 73.575 59.9337 73.575C61.0037 73.575 61.8487 73.945 62.4687 74.685C63.0987 75.415 63.4137 76.34 63.4137 77.46V77.745H57.5487C57.5987 78.455 57.8587 79.05 58.3287 79.53C58.7987 80.01 59.4087 80.25 60.1587 80.25C61.0587 80.25 61.8037 79.945 62.3937 79.335L62.9337 80.07C62.1937 80.81 61.2337 81.18 60.0537 81.18ZM62.3037 76.92C62.2937 76.3 62.0837 75.745 61.6737 75.255C61.2637 74.755 60.6787 74.505 59.9187 74.505C59.1987 74.505 58.6287 74.75 58.2087 75.24C57.7987 75.73 57.5787 76.29 57.5487 76.92H62.3037ZM73.1308 81H72.0058L70.1158 75.18L68.2258 81H67.1008L64.7908 73.755H65.9608L67.7308 79.53L69.6358 73.755H70.5958L72.5008 79.53L74.2708 73.755H75.4408L73.1308 81ZM84.7837 81H83.5537L80.5387 73.755H81.7537L84.1687 79.695L86.5687 73.755H87.7987L84.7837 81ZM90.0272 72.72C89.8272 72.72 89.6522 72.65 89.5022 72.51C89.3522 72.36 89.2772 72.18 89.2772 71.97C89.2772 71.76 89.3522 71.58 89.5022 71.43C89.6522 71.28 89.8272 71.205 90.0272 71.205C90.2372 71.205 90.4172 71.28 90.5672 71.43C90.7172 71.58 90.7922 71.76 90.7922 71.97C90.7922 72.18 90.7172 72.36 90.5672 72.51C90.4172 72.65 90.2372 72.72 90.0272 72.72ZM90.5972 81H89.4722V73.755H90.5972V81ZM99.7163 81H98.5913V79.92C97.9713 80.76 97.1563 81.18 96.1463 81.18C95.1863 81.18 94.4063 80.84 93.8063 80.16C93.2163 79.47 92.9213 78.545 92.9213 77.385C92.9213 76.235 93.2163 75.315 93.8063 74.625C94.4063 73.925 95.1863 73.575 96.1463 73.575C97.1463 73.575 97.9613 74 98.5913 74.85V70.995H99.7163V81ZM96.4163 80.175C96.8563 80.175 97.2763 80.065 97.6763 79.845C98.0763 79.625 98.3813 79.355 98.5913 79.035V75.75C98.3813 75.42 98.0713 75.145 97.6613 74.925C97.2613 74.695 96.8463 74.58 96.4163 74.58C95.7063 74.58 95.1413 74.845 94.7213 75.375C94.3013 75.895 94.0913 76.565 94.0913 77.385C94.0913 78.205 94.3013 78.875 94.7213 79.395C95.1413 79.915 95.7063 80.175 96.4163 80.175ZM105.739 81.18C104.659 81.18 103.774 80.83 103.084 80.13C102.394 79.42 102.049 78.5 102.049 77.37C102.049 76.31 102.389 75.415 103.069 74.685C103.749 73.945 104.599 73.575 105.619 73.575C106.689 73.575 107.534 73.945 108.154 74.685C108.784 75.415 109.099 76.34 109.099 77.46V77.745H103.234C103.284 78.455 103.544 79.05 104.014 79.53C104.484 80.01 105.094 80.25 105.844 80.25C106.744 80.25 107.489 79.945 108.079 79.335L108.619 80.07C107.879 80.81 106.919 81.18 105.739 81.18ZM107.989 76.92C107.979 76.3 107.769 75.745 107.359 75.255C106.949 74.755 106.364 74.505 105.604 74.505C104.884 74.505 104.314 74.75 103.894 75.24C103.484 75.73 103.264 76.29 103.234 76.92H107.989ZM117.181 80.085C116.531 80.815 115.666 81.18 114.586 81.18C113.506 81.18 112.636 80.815 111.976 80.085C111.326 79.355 111.001 78.45 111.001 77.37C111.001 76.29 111.326 75.39 111.976 74.67C112.636 73.94 113.506 73.575 114.586 73.575C115.666 73.575 116.531 73.94 117.181 74.67C117.841 75.39 118.171 76.29 118.171 77.37C118.171 78.45 117.841 79.355 117.181 80.085ZM112.816 79.365C113.256 79.905 113.846 80.175 114.586 80.175C115.326 80.175 115.911 79.905 116.341 79.365C116.771 78.815 116.986 78.15 116.986 77.37C116.986 76.59 116.771 75.93 116.341 75.39C115.911 74.85 115.326 74.58 114.586 74.58C113.846 74.58 113.256 74.855 112.816 75.405C112.386 75.945 112.171 76.6 112.171 77.37C112.171 78.15 112.386 78.815 112.816 79.365Z" fill="black"/>
<defs>
<filter id="filter0_d_4_452" x="0.330078" y="0" width="150" height="118.931" filterUnits="userSpaceOnUse" color-interpolation-filters="sRGB">
<feFlood flood-opacity="0" result="BackgroundImageFix"/>
<feColorMatrix in="SourceAlpha" type="matrix" values="0 0 0 0 0 0 0 0 0 0 0 0 0 0 0 0 0 0 127 0" result="hardAlpha"/>
<feOffset dy="4"/>
<feGaussianBlur stdDeviation="5"/>
<feColorMatrix type="matrix" values="0 0 0 0 0 0 0 0 0 0 0 0 0 0 0 0 0 0 0.1 0"/>
<feBlend mode="normal" in2="BackgroundImageFix" result="effect1_dropShadow_4_452"/>
<feBlend mode="normal" in="SourceGraphic" in2="effect1_dropShadow_4_452" result="shape"/>
</filter>
</defs>
</svg>
