<svg width="28" height="22" viewBox="0 0 28 22" fill="none" xmlns="http://www.w3.org/2000/svg">
<path fill-rule="evenodd" clip-rule="evenodd" d="M19.5 11.75C19.5 14.7876 17.0376 17.25 14 17.25C10.9624 17.25 8.5 14.7876 8.5 11.75C8.5 8.71243 10.9624 6.25 14 6.25C17.0376 6.25 19.5 8.71243 19.5 11.75ZM17.5 11.75C17.5 13.683 15.933 15.25 14 15.25C12.067 15.25 10.5 13.683 10.5 11.75C10.5 9.817 12.067 8.25 14 8.25C15.933 8.25 17.5 9.817 17.5 11.75Z" fill="white"/>
<path fill-rule="evenodd" clip-rule="evenodd" d="M10.2208 0C9.3599 0 8.59562 0.55086 8.32339 1.36754L7.77924 3H3.5C1.84315 3 0.5 4.34315 0.5 6V18.5C0.5 20.1569 1.84315 21.5 3.5 21.5H24.5C26.1569 21.5 27.5 20.1569 27.5 18.5V6C27.5 4.34315 26.1569 3 24.5 3H20.2208L19.6766 1.36754C19.4044 0.55086 18.6401 0 17.7792 0H10.2208ZM10.2208 2H17.7792L18.3234 3.63246C18.5956 4.44914 19.3599 5 20.2208 5H24.5C25.0523 5 25.5 5.44772 25.5 6V18.5C25.5 19.0523 25.0523 19.5 24.5 19.5H3.5C2.94772 19.5 2.5 19.0523 2.5 18.5V6C2.5 5.44772 2.94772 5 3.5 5H7.77924C8.6401 5 9.40438 4.44914 9.67661 3.63246L10.2208 2Z" fill="white"/>
</svg>
