<svg width="14" height="14" viewBox="0 0 14 14" fill="none" xmlns="http://www.w3.org/2000/svg">
<path fill-rule="evenodd" clip-rule="evenodd" d="M3.75 2.5C3.75 1.5335 4.5335 0.75 5.5 0.75H11.5C12.4665 0.75 13.25 1.5335 13.25 2.5V8.5C13.25 9.4665 12.4665 10.25 11.5 10.25H10.25V12C10.25 12.9665 9.4665 13.75 8.5 13.75H2.5C1.5335 13.75 0.75 12.9665 0.75 12V5.5C0.75 4.5335 1.5335 3.75 2.5 3.75H3.75V2.5ZM3.75 5.25H2.5C2.36193 5.25 2.25 5.36193 2.25 5.5V12C2.25 12.1381 2.36193 12.25 2.5 12.25H8.5C8.63807 12.25 8.75 12.1381 8.75 12V10.25H5.5C4.5335 10.25 3.75 9.4665 3.75 8.5V5.25ZM5.5 2.25C5.36193 2.25 5.25 2.36193 5.25 2.5V8.5C5.25 8.63807 5.36193 8.75 5.5 8.75H11.5C11.6381 8.75 11.75 8.63807 11.75 8.5V2.5C11.75 2.36193 11.6381 2.25 11.5 2.25H5.5Z" fill="#161722"/>
</svg>
