<svg width="20" height="16" viewBox="0 0 20 16" fill="none" xmlns="http://www.w3.org/2000/svg">
<path fill-rule="evenodd" clip-rule="evenodd" d="M3 2.25C2.58579 2.25 2.25 2.58579 2.25 3V13C2.25 13.4142 2.58579 13.75 3 13.75H13C13.4142 13.75 13.75 13.4142 13.75 13V3C13.75 2.58579 13.4142 2.25 13 2.25H3ZM0.75 3C0.75 1.75736 1.75736 0.75 3 0.75H13C14.2426 0.75 15.25 1.75736 15.25 3V6.51576L18.4068 4.18969C19.0671 3.70318 20 4.1746 20 4.99475V11.0053C20 11.8254 19.0671 12.2968 18.4068 11.8103L15.25 9.48424V13C15.25 14.2426 14.2426 15.25 13 15.25H3C1.75736 15.25 0.75 14.2426 0.75 13V3ZM15.7643 8L18.5 10.0158V5.98424L15.7643 8Z" fill="#86878B"/>
</svg>
