<svg width="16" height="20" viewBox="0 0 16 20" fill="none" xmlns="http://www.w3.org/2000/svg">
<path d="M12.0303 10.5304C12.3232 10.2375 12.3232 9.76267 12.0303 9.46978C11.7374 9.17689 11.2626 9.17689 10.9697 9.46978L9.06219 11.3773L7.93463 9.96781C7.46922 9.38605 6.60146 9.33799 6.07466 9.86479L3.96967 11.9698C3.67678 12.2627 3.67678 12.7375 3.96967 13.0304C4.26256 13.3233 4.73744 13.3233 5.03033 13.0304L6.93781 11.123L8.06537 12.5324C8.53078 13.1142 9.39854 13.1622 9.92534 12.6354L12.0303 10.5304Z" fill="#86878B"/>
<path fill-rule="evenodd" clip-rule="evenodd" d="M8.79057 1.19407C8.35455 0.808658 7.70758 0.776459 7.23584 1.13024C5.98971 2.06478 4.26774 3.59438 2.8491 5.3941C1.44723 7.17255 0.25 9.32978 0.25 11.5001C0.25 14.2249 1.35083 16.188 2.90007 17.4556C4.42591 18.704 6.34995 19.2501 8 19.2501C9.65005 19.2501 11.5741 18.704 13.0999 17.4556C14.6492 16.188 15.75 14.2249 15.75 11.5001C15.75 10.5696 15.4285 9.59034 14.9633 8.64924C14.4938 7.69951 13.8506 6.73432 13.1445 5.81748C11.7327 3.98415 10.0205 2.28128 8.79057 1.19407ZM4.02712 6.32268C5.28322 4.72917 6.81041 3.34758 7.96044 2.46345C9.12452 3.50868 10.6779 5.07291 11.9561 6.7327C12.6254 7.60187 13.2071 8.48152 13.6186 9.31396C14.0344 10.155 14.25 10.8953 14.25 11.5001C14.25 13.7753 13.3508 15.3122 12.1501 16.2946C10.9259 17.2962 9.34995 17.7501 8 17.7501C6.65005 17.7501 5.07409 17.2962 3.84993 16.2946C2.64917 15.3122 1.75 13.7753 1.75 11.5001C1.75 9.84286 2.68929 8.0199 4.02712 6.32268Z" fill="#86878B"/>
</svg>
