<svg width="18" height="18" viewBox="0 0 18 18" fill="none" xmlns="http://www.w3.org/2000/svg">
<path fill-rule="evenodd" clip-rule="evenodd" d="M2.74222 3.19169C4.03139 1.53876 6.04479 0.25 9 0.25C11.9552 0.25 13.9686 1.53876 15.2578 3.19169C16.5244 4.81568 17.0789 6.76807 17.2232 8.15681C17.2863 8.76392 16.8011 9.25 16.2328 9.25H10.25V14C10.25 14.8989 9.97807 15.7276 9.38796 16.3351C8.79439 16.9461 7.95975 17.25 7 17.25C4.89707 17.25 3.97656 15.4985 3.7724 14.6819C3.67193 14.2801 3.91625 13.8729 4.3181 13.7724C4.71995 13.6719 5.12715 13.9163 5.22761 14.3181C5.35678 14.8348 5.90294 15.75 7 15.75C7.64025 15.75 8.05562 15.5539 8.31204 15.2899C8.57193 15.0224 8.75 14.6011 8.75 14V9.25H1.76722C1.19887 9.25 0.713668 8.76393 0.776781 8.15681C0.921148 6.76807 1.47562 4.81568 2.74222 3.19169ZM2.34888 7.75H15.6511C15.4514 6.63706 14.9702 5.26203 14.075 4.11418C13.0444 2.79276 11.4528 1.75 9 1.75C6.5472 1.75 4.95564 2.79276 3.92501 4.11418C3.02977 5.26203 2.54858 6.63706 2.34888 7.75Z" fill="#86878B"/>
</svg>
