<svg width="20" height="22" viewBox="0 0 20 22" fill="none" xmlns="http://www.w3.org/2000/svg">
<path d="M10.7502 15.26V0.75C10.7502 0.611929 10.6383 0.5 10.5002 0.5H9.50018C9.36211 0.5 9.25018 0.611929 9.25018 0.75V15.26L1.6969 8.1264C1.59652 8.03159 1.4383 8.03611 1.34349 8.13649L0.65687 8.86351C0.562067 8.96389 0.566588 9.12211 0.666968 9.21692L9.65687 17.7074C9.84957 17.8894 10.1508 17.8894 10.3435 17.7074L19.3334 9.21692C19.4338 9.12211 19.4383 8.96389 19.3435 8.86351L18.6569 8.13649C18.5621 8.03611 18.4038 8.03159 18.3035 8.1264L10.7502 15.26Z" fill="#161722"/>
<path d="M18.0001 20.5C18.0001 20.3619 17.8882 20.25 17.7501 20.25H2.25011C2.11204 20.25 2.00011 20.3619 2.00011 20.5V21.5C2.00011 21.6381 2.11204 21.75 2.25011 21.75H17.7501C17.8882 21.75 18.0001 21.6381 18.0001 21.5V20.5Z" fill="#161722"/>
</svg>
