<svg width="31" height="21" viewBox="0 0 31 21" fill="none" xmlns="http://www.w3.org/2000/svg">
<path d="M19.5 8.50001C19.5 9.60458 19.0523 10.5 18.5 10.5C17.9477 10.5 17.5 9.60458 17.5 8.50001C17.5 7.39544 17.9477 6.50001 18.5 6.50001C19.0523 6.50001 19.5 7.39544 19.5 8.50001Z" fill="#161722"/>
<path d="M24.5 10.5C25.0523 10.5 25.5 9.60458 25.5 8.50001C25.5 7.39544 25.0523 6.50001 24.5 6.50001C23.9477 6.50001 23.5 7.39544 23.5 8.50001C23.5 9.60458 23.9477 10.5 24.5 10.5Z" fill="#161722"/>
<path fill-rule="evenodd" clip-rule="evenodd" d="M15.2481 19.1988C13.8888 19.958 12.371 20.3994 10.8091 20.4847C8.96991 20.5852 7.13767 20.1882 5.50501 19.3356C3.87235 18.4829 2.49962 17.2061 1.53118 15.6393C0.56273 14.0726 0.0343643 12.2738 0.0016189 10.4322C-0.0311112 8.59058 0.432985 6.77418 1.34514 5.174C2.25728 3.57381 3.58376 2.24898 5.18508 1.33883C6.78639 0.428672 8.60336 -0.0331657 10.4449 0.00185325C12.1308 0.0339272 13.7802 0.4813 15.2481 1.30118C16.7276 0.472465 18.4336 6.94098e-06 20.25 6.94098e-06C25.9109 6.94098e-06 30.5 4.58909 30.5 10.25C30.5 15.9109 25.9109 20.5 20.25 20.5C18.4336 20.5 16.7276 20.0275 15.2481 19.1988ZM5.92629 2.64291C7.29326 1.86594 8.84435 1.47169 10.4164 1.50159C11.5961 1.52402 12.7549 1.78469 13.8246 2.26348C11.4923 4.14229 10 7.02189 10 10.25C10 13.4781 11.4923 16.3577 13.8246 18.2365C12.8506 18.6725 11.8011 18.9283 10.7273 18.987C9.15724 19.0727 7.59313 18.7339 6.1994 18.006C4.80567 17.2781 3.63382 16.1881 2.8071 14.8506C1.98038 13.5132 1.52933 11.9776 1.50139 10.4055C1.47344 8.83343 1.86963 7.28284 2.64829 5.91683C3.42694 4.55082 4.55931 3.41987 5.92629 2.64291ZM29 10.25C29 15.0825 25.0825 19 20.25 19C15.4175 19 11.5 15.0825 11.5 10.25C11.5 5.41752 15.4175 1.50001 20.25 1.50001C25.0825 1.50001 29 5.41752 29 10.25Z" fill="#161722"/>
</svg>
