<svg width="42" height="43" viewBox="0 0 42 43" fill="none" xmlns="http://www.w3.org/2000/svg">
<g filter="url(#filter0_d_4_699)">
<circle cx="21.25" cy="21.25" r="16.75" fill="#F9DBCC"/>
</g>
<ellipse cx="16.3693" cy="18.3529" rx="1.71374" ry="2.11676" transform="rotate(-13.5948 16.3693 18.3529)" fill="#5C2937"/>
<path d="M26.6525 15.8066C26.917 15.5848 26.9517 15.1906 26.7299 14.9261C26.5081 14.6616 26.1139 14.6269 25.8494 14.8487L22.5565 17.6098C22.4019 17.7394 22.3258 17.9279 22.3335 18.1149C22.3353 18.1862 22.3494 18.2583 22.3771 18.3284C22.5038 18.6495 22.8667 18.8071 23.1878 18.6805C24.5718 18.1346 26.1235 17.9187 27.529 18.1531C27.8695 18.2098 28.1915 17.9798 28.2483 17.6394C28.305 17.2989 28.0751 16.9769 27.7346 16.9201C26.9691 16.7925 26.1782 16.7785 25.3953 16.8607L26.6525 15.8066Z" fill="#5C2937"/>
<path d="M31.0761 20.4337C31.4226 24.2025 29.3024 28.9106 24.2137 30.5136C19.0333 31.5234 13.702 28.6612 12.016 24.8958C11.3809 22.7587 14.071 22.7442 20.953 21.6304C28.4432 20.4181 31.0203 19.8269 31.0761 20.4337Z" fill="#B05151"/>
<path d="M27.9842 28.3616C26.9819 29.2832 25.7296 30.0361 24.2139 30.5136C21.917 30.9614 19.5903 30.6478 17.5649 29.8319C18.2349 27.4703 20.4071 25.7405 22.9833 25.7405C24.9864 25.7405 26.8858 26.7863 27.9842 28.3616Z" fill="#D76069"/>
<path d="M14.6575 24.0352C14.6672 24.0739 14.6975 24.1029 14.7369 24.1089C17.6814 24.5624 23.8409 23.8195 27.8563 21.978C27.8917 21.9618 27.9138 21.9266 27.9138 21.8877V20.4827C27.1139 20.6076 26.1423 20.7702 24.9772 20.9653C23.8303 21.1572 22.4958 21.3806 20.9528 21.6303C19.9212 21.7973 18.9838 21.9395 18.1377 22.0679C16.5524 22.3085 15.2875 22.5005 14.3237 22.7152L14.6575 24.0352Z" fill="white"/>
<defs>
<filter id="filter0_d_4_699" x="0.5" y="0.83" width="41.5" height="41.5" filterUnits="userSpaceOnUse" color-interpolation-filters="sRGB">
<feFlood flood-opacity="0" result="BackgroundImageFix"/>
<feColorMatrix in="SourceAlpha" type="matrix" values="0 0 0 0 0 0 0 0 0 0 0 0 0 0 0 0 0 0 127 0" result="hardAlpha"/>
<feOffset dy="0.33"/>
<feGaussianBlur stdDeviation="2"/>
<feColorMatrix type="matrix" values="0 0 0 0 0 0 0 0 0 0 0 0 0 0 0 0 0 0 0.2 0"/>
<feBlend mode="normal" in2="BackgroundImageFix" result="effect1_dropShadow_4_699"/>
<feBlend mode="normal" in="SourceGraphic" in2="effect1_dropShadow_4_699" result="shape"/>
</filter>
</defs>
</svg>
