<svg width="23" height="23" viewBox="0 0 23 23" fill="none" xmlns="http://www.w3.org/2000/svg">
<path d="M7.56201 11C8.39038 11 9.06201 10.1045 9.06201 9C9.06201 7.89551 8.39038 7 7.56201 7C6.73364 7 6.06201 7.89551 6.06201 9C6.06201 10.1045 6.73364 11 7.56201 11Z" fill="#161722"/>
<path d="M16.062 9C16.062 10.1045 15.3904 11 14.562 11C13.7336 11 13.062 10.1045 13.062 9C13.062 7.89551 13.7336 7 14.562 7C15.3904 7 16.062 7.89551 16.062 9Z" fill="#161722"/>
<path d="M11.062 15.7891C12.562 15.7891 14.062 14.7373 14.062 13.6328C14.062 12.5283 12.062 12.5 11.062 12.5C10.062 12.5 8.06201 12.5283 8.06201 13.6328C8.06201 14.7373 9.56201 15.7891 11.062 15.7891Z" fill="#161722"/>
<path fill-rule="evenodd" clip-rule="evenodd" d="M22.062 11.5C22.062 17.5752 17.1372 22.5 11.062 22.5C4.98682 22.5 0.0620117 17.5752 0.0620117 11.5C0.0620117 5.4248 4.98682 0.5 11.062 0.5C17.1372 0.5 22.062 5.4248 22.062 11.5ZM20.062 11.5C20.062 16.4705 16.0325 20.5 11.062 20.5C6.09155 20.5 2.06201 16.4705 2.06201 11.5C2.06201 6.52954 6.09155 2.5 11.062 2.5C16.0325 2.5 20.062 6.52954 20.062 11.5Z" fill="#161722"/>
</svg>
