<svg width="54" height="54" viewBox="0 0 54 54" fill="none" xmlns="http://www.w3.org/2000/svg">
<mask id="mask0_4_214" style="mask-type:alpha" maskUnits="userSpaceOnUse" x="0" y="0" width="54" height="54">
<circle cx="27" cy="27" r="27" fill="#C4C4C4"/>
</mask>
<g mask="url(#mask0_4_214)">
<circle cx="27" cy="27" r="27" fill="white"/>
<path d="M27.5 -2C-2.5 -2 -2.5 -2 -2.5 30.5994C-2.5 53.8289 -2.5 54 23.2472 53.8289V35.949H17.0959V28.795H23.2472V23.52C23.2472 17.3994 26.9699 14.064 32.408 14.064C35.0125 14.064 37.2507 14.2589 37.9005 14.3448V20.7424L34.1288 20.7442C31.1721 20.7442 30.602 22.1549 30.602 24.2256V28.7914H37.6571L36.737 35.9454H30.602V54C55.5 53.8289 55.5 54 55.5 30.5994C55.5 -2 55.5 -2 27.5 -2Z" fill="#3173F1"/>
</g>
</svg>
