<svg width="30" height="42" viewBox="0 0 30 42" fill="none" xmlns="http://www.w3.org/2000/svg">
<path fill-rule="evenodd" clip-rule="evenodd" d="M15 21.399C16.2705 22.6955 18.0413 23.5 20 23.5C23.866 23.5 27 20.366 27 16.5C27 13.2013 24.7183 10.4355 21.647 9.69486C21.9276 8.84516 22.0435 7.94681 21.9854 7.04836C21.9081 5.85242 21.525 4.69637 20.8729 3.6909C20.2208 2.68544 19.3214 1.86424 18.2609 1.30595C17.2005 0.747664 16.0145 0.470984 14.8165 0.502407C13.6184 0.533831 12.4486 0.872307 11.4188 1.48542C10.3891 2.09853 9.53404 2.96575 8.93551 4.00402C8.33698 5.04229 8.01504 6.21683 8.00052 7.41518C7.99109 8.19277 8.11132 8.96349 8.35351 9.69639C8.27324 9.71582 8.19322 9.73669 8.11348 9.759C6.69475 10.156 5.43745 10.9906 4.52063 12.1438C3.6038 13.297 3.0742 14.7101 3.00724 16.1818C2.94027 17.6535 3.33936 19.1089 4.14766 20.3406C4.95596 21.5723 6.13228 22.5176 7.50909 23.0418C8.88591 23.5661 10.393 23.6425 11.8158 23.2604C13.0283 22.9347 14.1269 22.2901 15 21.399ZM17.3293 3.07568C16.5718 2.6769 15.7246 2.47927 14.8689 2.50172C14.0132 2.52416 13.1775 2.76593 12.442 3.20387C11.7065 3.64181 11.0957 4.26125 10.6682 5.00287C10.2407 5.74449 10.0107 6.58345 10.0004 7.43941C9.99171 8.15439 10.1365 8.86123 10.423 9.5128C11.1023 9.55392 11.776 9.6941 12.4223 9.93247C13.3994 10.2929 14.2785 10.8647 15 11.601C16.1784 10.3985 17.7872 9.61924 19.5771 9.51257C19.8995 8.77924 20.0414 7.97837 19.9896 7.1774C19.9344 6.32316 19.6607 5.49741 19.1949 4.77922C18.7291 4.06103 18.0867 3.47446 17.3293 3.07568ZM13.799 13.2492C13.2458 12.6028 12.5345 12.1055 11.7302 11.8089C10.7429 11.4448 9.66587 11.4014 8.65249 11.685C7.63911 11.9686 6.74104 12.5647 6.08616 13.3884C5.43129 14.2122 5.053 15.2215 5.00517 16.2727C4.95734 17.324 5.2424 18.3635 5.81976 19.2433C6.39712 20.1231 7.23734 20.7983 8.22078 21.1727C9.20422 21.5472 10.2807 21.6018 11.297 21.3288C12.272 21.067 13.1439 20.5163 13.799 19.7508C13.2887 18.7794 13 17.6734 13 16.5C13 15.3266 13.2887 14.2206 13.799 13.2492ZM20 21.5C22.7614 21.5 25 19.2614 25 16.5C25 13.7386 22.7614 11.5 20 11.5C17.2386 11.5 15 13.7386 15 16.5C15 19.2614 17.2386 21.5 20 21.5Z" fill="white"/>
<path d="M4.05656 39H2.63656V32.33H7.35656V33.58H4.05656V34.99H7.28656V36.24H4.05656V39ZM8.94945 33.65C8.74279 33.65 8.56279 33.5767 8.40945 33.43C8.26279 33.2767 8.18945 33.0967 8.18945 32.89C8.18945 32.6833 8.26279 32.5067 8.40945 32.36C8.56279 32.2133 8.74279 32.14 8.94945 32.14C9.16279 32.14 9.34279 32.2133 9.48945 32.36C9.63612 32.5067 9.70945 32.6833 9.70945 32.89C9.70945 33.0967 9.63612 33.2767 9.48945 33.43C9.34279 33.5767 9.16279 33.65 8.94945 33.65ZM9.58945 39H8.31945V34.17H9.58945V39ZM12.1188 39H10.8488V32.33H12.1188V39ZM14.998 39.12C14.5514 39.12 14.2114 39.0067 13.978 38.78C13.7447 38.5533 13.628 38.2267 13.628 37.8V35.28H12.828V34.17H13.628V32.85H14.908V34.17H15.888V35.28H14.908V37.46C14.908 37.6133 14.948 37.74 15.028 37.84C15.108 37.94 15.2147 37.99 15.348 37.99C15.548 37.99 15.6947 37.9433 15.788 37.85L16.058 38.81C15.8247 39.0167 15.4714 39.12 14.998 39.12ZM19.027 39.12C18.2803 39.12 17.6636 38.8867 17.177 38.42C16.6903 37.9533 16.447 37.34 16.447 36.58C16.447 35.8667 16.6803 35.2667 17.147 34.78C17.6203 34.2933 18.2203 34.05 18.947 34.05C19.667 34.05 20.2503 34.2967 20.697 34.79C21.1436 35.2767 21.367 35.9167 21.367 36.71V36.99H17.777C17.817 37.31 17.9603 37.5767 18.207 37.79C18.4536 38.0033 18.7736 38.11 19.167 38.11C19.3803 38.11 19.6103 38.0667 19.857 37.98C20.1103 37.8933 20.3103 37.7767 20.457 37.63L21.017 38.45C20.5303 38.8967 19.867 39.12 19.027 39.12ZM20.137 36.13C20.117 35.8567 20.007 35.61 19.807 35.39C19.6136 35.17 19.327 35.06 18.947 35.06C18.587 35.06 18.307 35.17 18.107 35.39C17.907 35.6033 17.7903 35.85 17.757 36.13H20.137ZM23.5543 39H22.2843V34.17H23.5543V34.83C23.7343 34.6033 23.9643 34.4167 24.2443 34.27C24.5243 34.1233 24.8076 34.05 25.0943 34.05V35.29C25.0076 35.27 24.891 35.26 24.7443 35.26C24.531 35.26 24.3043 35.3133 24.0643 35.42C23.8243 35.5267 23.6543 35.6567 23.5543 35.81V39ZM27.6278 39.12C27.2078 39.12 26.8045 39.0533 26.4178 38.92C26.0378 38.7867 25.7211 38.6033 25.4678 38.37L26.0178 37.48C26.2045 37.6533 26.4578 37.8067 26.7778 37.94C27.0978 38.0733 27.4011 38.14 27.6878 38.14C27.9545 38.14 28.1545 38.0933 28.2878 38C28.4278 37.9067 28.4978 37.78 28.4978 37.62C28.4978 37.5 28.4245 37.4033 28.2778 37.33C28.1378 37.25 27.9611 37.1933 27.7478 37.16C27.5411 37.1267 27.3111 37.0767 27.0578 37.01C26.8111 36.9433 26.5811 36.8633 26.3678 36.77C26.1611 36.6767 25.9845 36.53 25.8378 36.33C25.6978 36.1233 25.6278 35.87 25.6278 35.57C25.6278 35.1433 25.8045 34.7833 26.1578 34.49C26.5111 34.1967 26.9945 34.05 27.6078 34.05C28.3545 34.05 29.0045 34.27 29.5578 34.71L29.0478 35.58C28.8945 35.42 28.6878 35.2867 28.4278 35.18C28.1745 35.0733 27.9045 35.02 27.6178 35.02C27.3911 35.02 27.2078 35.0667 27.0678 35.16C26.9278 35.2467 26.8578 35.36 26.8578 35.5C26.8578 35.6067 26.9278 35.6967 27.0678 35.77C27.2078 35.8367 27.3845 35.8867 27.5978 35.92C27.8111 35.9533 28.0411 36.0067 28.2878 36.08C28.5345 36.1467 28.7645 36.23 28.9778 36.33C29.1911 36.4233 29.3678 36.5767 29.5078 36.79C29.6478 37.0033 29.7178 37.2633 29.7178 37.57C29.7178 38.0233 29.5311 38.3967 29.1578 38.69C28.7911 38.9767 28.2811 39.12 27.6278 39.12Z" fill="white"/>
</svg>
