<svg width="26" height="43" viewBox="0 0 26 43" fill="none" xmlns="http://www.w3.org/2000/svg">
<path d="M7.82803 1.9253C8.08182 1.07934 8.86047 0.5 9.74368 0.5H17.2627C18.8044 0.5 19.7664 2.17094 18.9922 3.50427L16.3239 8.09979C16.2852 8.16645 16.3333 8.25 16.4103 8.25H19.6311C21.2285 8.25 22.1813 10.0303 21.2952 11.3594L18.4557 15.6187C18.3682 15.75 18.1824 15.7684 18.0709 15.6568L16.9892 14.5752C16.905 14.4909 16.8919 14.3589 16.958 14.2597L19.6311 10.25H16.2366C14.6949 10.25 13.7329 8.57906 14.5071 7.24573L17.1754 2.65021C17.2141 2.58355 17.166 2.5 17.089 2.5H9.92969C9.81929 2.5 9.72196 2.57242 9.69023 2.67816L8.74942 5.8142C8.69506 5.99539 8.46695 6.0529 8.33319 5.91914L7.12854 4.71449C7.0635 4.64946 7.03943 4.55397 7.06586 4.46588L7.82803 1.9253Z" fill="white"/>
<path fill-rule="evenodd" clip-rule="evenodd" d="M3.29289 5.29289C3.68342 4.90237 4.31658 4.90237 4.70711 5.29289L14.4921 15.0779L14.4999 15.0857L16.0938 16.6795L16.1017 16.6875L20.2071 20.7929C20.5976 21.1834 20.5976 21.8166 20.2071 22.2071C19.8166 22.5976 19.1834 22.5976 18.7929 22.2071L16.1081 19.5223L12.9324 23.7566C11.7205 25.3725 9.14989 24.3778 9.3414 22.367L9.90017 16.4999H6.35389C5.00828 16.4999 4.04661 15.1978 4.44234 13.9117L5.86708 9.28129L3.29289 6.70711C2.90237 6.31658 2.90237 5.68342 3.29289 5.29289ZM7.46725 10.8815L11.0857 14.4999H6.48929C6.42201 14.4999 6.37393 14.4348 6.39371 14.3705L7.46725 10.8815Z" fill="white"/>
<path d="M3.46086 40H2.04086V33.33H6.76086V34.58H3.46086V35.99H6.69086V37.24H3.46086V40ZM8.99375 40H7.72375V33.33H8.99375V40ZM14.423 40H13.153V39.5C12.8064 39.9133 12.2964 40.12 11.623 40.12C11.1897 40.12 10.7997 39.98 10.453 39.7C10.113 39.4133 9.94305 39.02 9.94305 38.52C9.94305 38 10.1097 37.61 10.443 37.35C10.783 37.09 11.1764 36.96 11.623 36.96C12.3097 36.96 12.8197 37.1567 13.153 37.55V36.9C13.153 36.6533 13.0564 36.4567 12.863 36.31C12.6697 36.1633 12.413 36.09 12.093 36.09C11.5664 36.09 11.0964 36.28 10.683 36.66L10.203 35.81C10.7764 35.3033 11.4797 35.05 12.313 35.05C12.933 35.05 13.4397 35.1933 13.833 35.48C14.2264 35.7667 14.423 36.2333 14.423 36.88V40ZM12.133 39.26C12.6064 39.26 12.9464 39.12 13.153 38.84V38.24C12.9464 37.96 12.6064 37.82 12.133 37.82C11.873 37.82 11.6564 37.8867 11.483 38.02C11.3097 38.1467 11.223 38.3233 11.223 38.55C11.223 38.77 11.3097 38.9433 11.483 39.07C11.6564 39.1967 11.873 39.26 12.133 39.26ZM17.4227 40.12C17.0027 40.12 16.5994 40.0533 16.2127 39.92C15.8327 39.7867 15.5161 39.6033 15.2627 39.37L15.8127 38.48C15.9994 38.6533 16.2527 38.8067 16.5727 38.94C16.8927 39.0733 17.1961 39.14 17.4827 39.14C17.7494 39.14 17.9494 39.0933 18.0827 39C18.2227 38.9067 18.2927 38.78 18.2927 38.62C18.2927 38.5 18.2194 38.4033 18.0727 38.33C17.9327 38.25 17.7561 38.1933 17.5427 38.16C17.3361 38.1267 17.1061 38.0767 16.8527 38.01C16.6061 37.9433 16.3761 37.8633 16.1627 37.77C15.9561 37.6767 15.7794 37.53 15.6327 37.33C15.4927 37.1233 15.4227 36.87 15.4227 36.57C15.4227 36.1433 15.5994 35.7833 15.9527 35.49C16.3061 35.1967 16.7894 35.05 17.4027 35.05C18.1494 35.05 18.7994 35.27 19.3527 35.71L18.8427 36.58C18.6894 36.42 18.4827 36.2867 18.2227 36.18C17.9694 36.0733 17.6994 36.02 17.4127 36.02C17.1861 36.02 17.0027 36.0667 16.8627 36.16C16.7227 36.2467 16.6527 36.36 16.6527 36.5C16.6527 36.6067 16.7227 36.6967 16.8627 36.77C17.0027 36.8367 17.1794 36.8867 17.3927 36.92C17.6061 36.9533 17.8361 37.0067 18.0827 37.08C18.3294 37.1467 18.5594 37.23 18.7727 37.33C18.9861 37.4233 19.1627 37.5767 19.3027 37.79C19.4427 38.0033 19.5127 38.2633 19.5127 38.57C19.5127 39.0233 19.3261 39.3967 18.9527 39.69C18.5861 39.9767 18.0761 40.12 17.4227 40.12ZM24.9884 40H23.7184V37.06C23.7184 36.74 23.6417 36.5133 23.4884 36.38C23.335 36.2467 23.1117 36.18 22.8184 36.18C22.3717 36.18 22.005 36.37 21.7184 36.75V40H20.4484V33.33H21.7184V35.8C21.8917 35.5933 22.125 35.4167 22.4184 35.27C22.7184 35.1233 23.0517 35.05 23.4184 35.05C23.9384 35.05 24.3284 35.1833 24.5884 35.45C24.855 35.7167 24.9884 36.09 24.9884 36.57V40Z" fill="white"/>
</svg>
