<svg width="54" height="77" viewBox="0 0 54 77" fill="none" xmlns="http://www.w3.org/2000/svg">
<path opacity="0.6" d="M33.4922 50.0032C33.8496 48.895 33.3011 47.9221 32.427 47.7669C31.1642 47.5425 29.8399 47.5241 28.7951 47.6001C28.1477 47.6472 27.5801 48.1225 27.3294 48.8519L25.5558 54.0137C25.3859 55.065 24.2695 56.0002 22.7996 56.2272C21.0823 56.4921 19.5334 55.6903 19.3398 54.436C19.1461 53.1816 20.381 51.95 22.0985 51.6848C23.0596 51.5365 23.9679 51.7223 24.6153 52.1345L25.9108 48.3645C26.3156 47.1869 27.3226 46.2033 28.6865 46.1041C29.8248 46.0214 31.2772 46.0393 32.6893 46.29C34.7202 46.6506 35.4681 48.7637 34.9199 50.4635L33.5546 54.6959C33.3344 55.7076 32.2416 56.5934 30.8168 56.8132C29.0994 57.0782 27.5505 56.2763 27.3569 55.0221C27.1632 53.7677 28.3981 52.536 30.1156 52.2709C31.0699 52.1236 31.9721 52.3057 32.6187 52.7118L33.4922 50.0032Z" fill="white"/>
<path opacity="0.1" d="M15.2521 6.80347C15.2319 5.37308 14.2436 4.48102 13.2006 4.67036C11.6937 4.94389 10.1961 5.4811 9.04911 6.00936C8.33835 6.33678 7.88067 7.125 7.87661 8.07298L7.84817 14.7812C8.05771 16.0668 7.15773 17.6174 5.58979 18.4993C3.75783 19.5295 1.70871 19.2568 1.01268 17.8902C0.316366 16.5234 1.23681 14.5805 3.06886 13.5501C4.09412 12.9735 5.18728 12.805 6.07322 13.008L6.09397 8.10843C6.10068 6.57789 6.8592 5.01756 8.35651 4.32779C9.60622 3.75222 11.2479 3.16048 12.9328 2.85444C15.3562 2.41436 17.0036 4.53898 17.0346 6.73293L17.1115 12.1957C17.2493 13.4568 16.357 14.9405 14.837 15.7952C13.0051 16.8253 10.9559 16.5526 10.2599 15.186C9.5636 13.8193 10.484 11.8763 12.3161 10.8459C13.334 10.2733 14.4189 10.1031 15.3015 10.2994L15.2521 6.80347Z" fill="white"/>
<path opacity="0.3" d="M49.8295 66.7718C50.0824 66.6122 50.41 66.6586 50.6333 66.7444C50.6499 66.7508 50.6638 66.7594 50.6765 66.7697C50.8313 66.8952 51.2226 67.1047 51.6934 67.292C52.1631 67.4788 52.7035 67.6401 53.1541 67.6737C53.25 67.6809 53.3303 67.7736 53.2946 67.8761C53.1834 68.1958 52.9142 68.5742 52.4233 68.7757C51.9458 68.9717 51.2664 68.9972 50.3317 68.6509L50.5195 72.8756C50.6398 73.1888 50.68 73.5307 50.6207 73.8766C50.4301 74.9878 49.2847 75.7186 48.0623 75.509C46.84 75.2993 46.0036 74.2286 46.1942 73.1174C46.3848 72.0062 47.5302 71.2753 48.7525 71.485C49.0949 71.5437 49.407 71.67 49.6748 71.8458L49.5029 67.98L49.5011 67.966C49.4155 67.2951 49.5713 66.9347 49.8295 66.7718Z" fill="white"/>
</svg>
