<svg width="16" height="14" viewBox="0 0 16 14" fill="none" xmlns="http://www.w3.org/2000/svg">
<path fill-rule="evenodd" clip-rule="evenodd" d="M11.0203 0.108741C13.5601 -0.122158 15.75 1.87768 15.75 4.42804V4.49056C15.75 5.65597 15.2871 6.77366 14.463 7.59773L8.81009 13.2506C8.36271 13.698 7.63736 13.698 7.18998 13.2506L1.53704 7.59773C0.712962 6.77366 0.25 5.65597 0.25 4.49055V4.42806C0.25 1.87769 2.4399 -0.122157 4.97979 0.108742C6.17121 0.217053 7.26352 0.812457 8.00003 1.75171C8.73653 0.812457 9.82884 0.217052 11.0203 0.108741ZM14.25 4.42804C14.25 2.75973 12.8175 1.45154 11.1561 1.60258C10.3564 1.67528 9.625 2.08341 9.14323 2.72577L8.67378 3.3517C8.33691 3.80087 7.66317 3.80087 7.32629 3.35171L6.85681 2.72576C6.37504 2.08341 5.64364 1.67528 4.84399 1.60258C3.18252 1.45154 1.75 2.75974 1.75 4.42806V4.49055C1.75 5.25815 2.05493 5.9943 2.5977 6.53707L8.00003 11.9394L13.4023 6.53707C13.9451 5.9943 14.25 5.25815 14.25 4.49056V4.42804Z" fill="#86878B"/>
</svg>
