<svg width="16" height="16" viewBox="0 0 16 16" fill="none" xmlns="http://www.w3.org/2000/svg">
<path fill-rule="evenodd" clip-rule="evenodd" d="M8 14.5C11.5899 14.5 14.5 11.5899 14.5 8C14.5 4.41015 11.5899 1.5 8 1.5C4.41015 1.5 1.5 4.41015 1.5 8C1.5 11.5899 4.41015 14.5 8 14.5ZM8 16C12.4183 16 16 12.4183 16 8C16 3.58172 12.4183 0 8 0C3.58172 0 0 3.58172 0 8C0 12.4183 3.58172 16 8 16ZM9 11.5C9 12.0523 8.55229 12.5 8 12.5C7.44772 12.5 7 12.0523 7 11.5C7 10.9477 7.44772 10.5 8 10.5C8.55229 10.5 9 10.9477 9 11.5ZM8.18188 9.47745C9.59288 9.12475 10.5048 8.38591 10.8518 7.40169C11.1902 6.442 10.9198 5.44409 10.3871 4.71412C9.85418 3.98385 8.98855 3.42162 7.98489 3.39479C6.94555 3.36699 5.92926 3.91538 5.13197 5.07507C4.89731 5.4164 4.98377 5.88334 5.3251 6.118C5.66643 6.35267 6.13337 6.2662 6.36803 5.92487C6.94574 5.08458 7.5232 4.88298 7.9448 4.89425C8.40207 4.90648 8.86457 5.17237 9.17541 5.59833C9.48647 6.0246 9.57538 6.51104 9.43722 6.90287C9.30771 7.27015 8.90712 7.75001 7.81812 8.02222C7.41627 8.12267 7.17194 8.52986 7.27239 8.93171C7.37284 9.33356 7.78003 9.5779 8.18188 9.47745Z" fill="#86878B"/>
</svg>
