<svg width="49" height="49" viewBox="0 0 49 49" fill="none" xmlns="http://www.w3.org/2000/svg">
<circle cx="24.5" cy="24.5" r="24.5" fill="url(#paint0_radial_4_924)"/>
<path fill-rule="evenodd" clip-rule="evenodd" d="M24.499 9C20.2917 9.00001 19.7633 9.01842 18.1102 9.09365C16.4601 9.16921 15.3338 9.43045 14.3482 9.81375C13.3287 10.2096 12.464 10.7392 11.6024 11.6011C10.7402 12.4626 10.2106 13.3274 9.81344 14.3465C9.42916 15.3324 9.1676 16.4591 9.09332 18.1085C9.01938 19.7618 9 20.2905 9 24.5C9 28.7095 9.01873 29.2362 9.09365 30.8896C9.16953 32.5397 9.43078 33.666 9.81376 34.6515C10.21 35.671 10.7396 36.5358 11.6014 37.3973C12.4627 38.2595 13.3275 38.7904 14.3463 39.1862C15.3325 39.5696 16.4591 39.8308 18.1089 39.9064C19.7623 39.9816 20.2903 40 24.4995 40C28.7094 40 29.2361 39.9816 30.8895 39.9064C32.5396 39.8308 33.6672 39.5696 34.6534 39.1862C35.6726 38.7904 36.536 38.2595 37.3973 37.3973C38.2595 36.5358 38.7891 35.671 39.1862 34.6519C39.5673 33.666 39.8289 32.5393 39.9064 30.8899C39.9806 29.2365 40 28.7095 40 24.5C40 20.2905 39.9806 19.7622 39.9064 18.1088C39.8289 16.4587 39.5673 15.3324 39.1862 14.3469C38.7891 13.3274 38.2595 12.4626 37.3973 11.6011C36.5351 10.7389 35.6729 10.2093 34.6524 9.81375C33.6643 9.43045 32.5373 9.16921 30.8872 9.09365C29.2342 9.01842 28.7077 9.00001 24.499 9ZM23.111 11.7932C23.381 11.7928 23.6714 11.7929 23.9848 11.7931C24.1505 11.7931 24.3226 11.7932 24.5015 11.7932C28.64 11.7932 29.1305 11.8081 30.7648 11.8823C32.2761 11.9515 33.0963 12.204 33.6427 12.4161C34.366 12.6971 34.8817 13.0329 35.4239 13.5754C35.9664 14.1179 36.3022 14.6346 36.5838 15.3579C36.796 15.9036 37.0488 16.7238 37.1176 18.2351C37.1919 19.869 37.208 20.3599 37.208 24.4964C37.208 28.633 37.1919 29.1238 37.1176 30.7578C37.0485 32.269 36.796 33.0893 36.5838 33.635C36.3029 34.3583 35.9664 34.8734 35.4239 35.4155C34.8814 35.958 34.3663 36.2939 33.6427 36.5748C33.0969 36.7879 32.2761 37.0398 30.7648 37.1089C29.1308 37.1832 28.64 37.1993 24.5015 37.1993C20.3626 37.1993 19.8721 37.1832 18.2381 37.1089C16.7268 37.0392 15.9066 36.7866 15.3599 36.5745C14.6366 36.2936 14.1199 35.9577 13.5774 35.4152C13.0349 34.8727 12.6991 34.3573 12.4175 33.6337C12.2053 33.088 11.9525 32.2678 11.8837 30.7565C11.8094 29.1225 11.7946 28.6317 11.7946 24.4926C11.7946 20.3534 11.8094 19.8652 11.8837 18.2312C11.9528 16.72 12.2053 15.8998 12.4175 15.3534C12.6984 14.63 13.0349 14.1134 13.5774 13.5709C14.1199 13.0284 14.6366 12.6925 15.3599 12.411C15.9063 12.1978 16.7268 11.946 18.2381 11.8765C19.668 11.812 20.2221 11.7926 23.111 11.7893V11.7932ZM30.9153 16.2263C30.9153 15.1991 31.7484 14.3669 32.7753 14.3669C33.8022 14.3669 34.6353 15.1994 34.6353 16.2263C34.6353 17.2531 33.8022 18.0863 32.7753 18.0863C31.7484 18.0863 30.9153 17.2531 30.9153 16.2263ZM24.5013 16.5401C20.1055 16.5402 16.5415 20.1042 16.5415 24.5C16.5415 28.8959 20.1055 32.4583 24.5015 32.4583C28.8974 32.4583 32.4601 28.8959 32.4601 24.5C32.4601 20.1042 28.8971 16.5402 24.5013 16.5401ZM29.6682 24.5C29.6682 21.6464 27.3548 19.3333 24.5015 19.3333C21.6478 19.3333 19.3347 21.6464 19.3347 24.5C19.3347 27.3533 21.6478 29.6667 24.5015 29.6667C27.3548 29.6667 29.6682 27.3533 29.6682 24.5Z" fill="white"/>
<defs>
<radialGradient id="paint0_radial_4_924" cx="0" cy="0" r="1" gradientUnits="userSpaceOnUse" gradientTransform="translate(15 48) rotate(-90) scale(46.5)">
<stop stop-color="#FFDD55"/>
<stop offset="0.1" stop-color="#FFDD55"/>
<stop offset="0.5" stop-color="#FF543E"/>
<stop offset="1" stop-color="#C837AB"/>
</radialGradient>
</defs>
</svg>
