<svg width="14" height="16" viewBox="0 0 14 16" fill="none" xmlns="http://www.w3.org/2000/svg">
<path fill-rule="evenodd" clip-rule="evenodd" d="M11.4191 4.44814C11.4191 6.90479 9.44061 8.89629 7 8.89629C4.55939 8.89629 2.58088 6.90479 2.58088 4.44814C2.58088 1.9915 4.55939 0 7 0C9.44061 0 11.4191 1.9915 11.4191 4.44814ZM9.88203 4.44814C9.88203 6.0503 8.5917 7.34911 7 7.34911C5.4083 7.34911 4.11797 6.0503 4.11797 4.44814C4.11797 2.84599 5.4083 1.54718 7 1.54718C8.5917 1.54718 9.88203 2.84599 9.88203 4.44814Z" fill="#86878B"/>
<path d="M0.0157674 15.2573C-0.0418169 15.4472 0.063398 15.6459 0.248757 15.7138L0.965946 15.9765C1.18364 16.0563 1.42054 15.9249 1.48848 15.7019C2.21162 13.3291 4.40564 11.6039 6.99999 11.6039C9.59433 11.6039 11.7884 13.3291 12.5115 15.7019C12.5795 15.9249 12.8164 16.0563 13.0341 15.9765L13.7512 15.7138C13.9366 15.6459 14.0418 15.4472 13.9842 15.2573C13.0713 12.2467 10.2897 10.0567 6.99999 10.0567C3.71025 10.0567 0.928689 12.2467 0.0157674 15.2573Z" fill="#86878B"/>
</svg>
