<svg width="47" height="47" viewBox="0 0 47 47" fill="none" xmlns="http://www.w3.org/2000/svg">
<circle cx="23.5" cy="23.5" r="23.5" fill="#2D67F6"/>
<path fill-rule="evenodd" clip-rule="evenodd" d="M23.5 8C14.7676 8 8 14.1902 8 22.5505C8 26.9238 9.85252 30.7025 12.8683 33.3132C13.1209 33.5335 13.2737 33.8384 13.2862 34.1673L13.3704 36.8354C13.3985 37.6865 14.306 38.2388 15.1107 37.8978L18.1857 36.5849C18.4477 36.4732 18.7377 36.4521 19.0122 36.5245C20.4249 36.9018 21.9313 37.101 23.5 37.101C32.2324 37.101 39 30.9108 39 22.5505C39 14.1902 32.2324 8 23.5 8Z" fill="white"/>
<path fill-rule="evenodd" clip-rule="evenodd" d="M14.1927 26.9547L18.7464 19.9745C19.47 18.8653 21.0233 18.588 22.1087 19.3747L25.7298 21.9998C26.0636 22.2409 26.5189 22.2379 26.8496 21.9968L31.7401 18.4102C32.392 17.931 33.2466 18.6875 32.8068 19.3566L28.2562 26.3338C27.5326 27.443 25.9794 27.7202 24.894 26.9336L21.2728 24.3085C20.9391 24.0674 20.4837 24.0704 20.1531 24.3115L15.2594 27.9011C14.6075 28.3803 13.7529 27.6238 14.1927 26.9547Z" fill="#2D67F6"/>
</svg>
