<svg width="66" height="69" viewBox="0 0 66 69" fill="none" xmlns="http://www.w3.org/2000/svg">
<path d="M19 27.5C18.1716 27.5 17.5 28.1716 17.5 29C17.5 29.8284 18.1716 30.5 19 30.5H47C47.8284 30.5 48.5 29.8284 48.5 29C48.5 28.1716 47.8284 27.5 47 27.5H19Z" fill="#B0B0B3"/>
<path fill-rule="evenodd" clip-rule="evenodd" d="M4.5 0.5C2.01472 0.5 0 2.51472 0 5V52.5C0 54.9853 2.01472 57 4.5 57H22.0119C22.4807 57 22.9225 57.2192 23.2062 57.5924L31.0096 67.86C32.0101 69.1764 33.99 69.1764 34.9904 67.86L42.7938 57.5924C43.0775 57.2192 43.5193 57 43.9881 57H61.5C63.9853 57 66 54.9853 66 52.5V5C66 2.51472 63.9853 0.5 61.5 0.5H4.5ZM3 5C3 4.17157 3.67157 3.5 4.5 3.5H61.5C62.3284 3.5 63 4.17157 63 5V52.5C63 53.3284 62.3284 54 61.5 54H43.9881C42.5818 54 41.2563 54.6575 40.4053 55.7771L33 65.521L25.5947 55.7771C24.7437 54.6575 23.4182 54 22.0119 54H4.5C3.67157 54 3 53.3284 3 52.5V5Z" fill="#B0B0B3"/>
</svg>
