<svg width="12" height="12" viewBox="0 0 12 12" fill="none" xmlns="http://www.w3.org/2000/svg">
<path fill-rule="evenodd" clip-rule="evenodd" d="M4.88889 9.76923V2.50968L10.6667 1.5097V8.30773H8.96293C7.98681 8.30773 7.11111 8.87609 7.11111 9.76923C7.11111 10.6624 7.98681 11.2308 8.96293 11.2308H10.1482C11.1243 11.2308 12 10.6624 12 9.76923V9.00005V0.692472C12 0.264671 11.63 -0.0607384 11.2237 0.00959066L4.11262 1.24034C3.79116 1.29598 3.55556 1.5848 3.55556 1.92322V9.07694H1.85185C0.875698 9.07694 0 9.64536 0 10.5385C0 11.4317 0.875698 12 1.85185 12H3.03704C4.01319 12 4.88889 11.4317 4.88889 10.5385V10.2308V9.76923Z" fill="white"/>
</svg>
