<svg width="43" height="28" viewBox="0 0 43 28" fill="none" xmlns="http://www.w3.org/2000/svg">
<rect x="7" width="36" height="28" rx="8" fill="#E6436D"/>
<rect width="36" height="28" rx="8" fill="#65D2E9"/>
<rect x="3.5" width="36" height="28" rx="8" fill="white"/>
<path d="M20.75 7.75C20.4739 7.75 20.25 7.97386 20.25 8.25V13H15.5C15.2239 13 15 13.2239 15 13.5V15C15 15.2761 15.2239 15.5 15.5 15.5H20.25V20.25C20.25 20.5261 20.4739 20.75 20.75 20.75H22.25C22.5261 20.75 22.75 20.5261 22.75 20.25V15.5H27.5C27.7761 15.5 28 15.2761 28 15V13.5C28 13.2239 27.7761 13 27.5 13H22.75V8.25C22.75 7.97386 22.5261 7.75 22.25 7.75H20.75Z" fill="#161722"/>
</svg>
