<svg width="16" height="18" viewBox="0 0 16 18" fill="none" xmlns="http://www.w3.org/2000/svg">
<path d="M8.75 12.2993C9.19835 12.04 9.5 11.5552 9.5 11C9.5 10.1716 8.82843 9.5 8 9.5C7.17157 9.5 6.5 10.1716 6.5 11C6.5 11.5552 6.80165 12.04 7.25 12.2993V14.5C7.25 14.9142 7.58579 15.25 8 15.25C8.41421 15.25 8.75 14.9142 8.75 14.5V12.2993Z" fill="#86878B"/>
<path fill-rule="evenodd" clip-rule="evenodd" d="M12.25 6.25V4.5C12.25 2.15279 10.3472 0.25 8 0.25C5.65279 0.25 3.75 2.15279 3.75 4.5V6.25H3.5C1.98122 6.25 0.75 7.48122 0.75 9V15C0.75 16.5188 1.98122 17.75 3.5 17.75H12.5C14.0188 17.75 15.25 16.5188 15.25 15V9C15.25 7.48122 14.0188 6.25 12.5 6.25H12.25ZM8 1.75C6.48122 1.75 5.25 2.98122 5.25 4.5V6.25H10.75V4.5C10.75 2.98122 9.51878 1.75 8 1.75ZM3.5 7.75C2.80964 7.75 2.25 8.30964 2.25 9V15C2.25 15.6904 2.80964 16.25 3.5 16.25H12.5C13.1904 16.25 13.75 15.6904 13.75 15V9C13.75 8.30964 13.1904 7.75 12.5 7.75H3.5Z" fill="#86878B"/>
</svg>
