<svg width="28" height="29" viewBox="0 0 28 29" fill="none" xmlns="http://www.w3.org/2000/svg">
<path fill-rule="evenodd" clip-rule="evenodd" d="M0.330078 2.66992C0.330078 1.56535 1.22551 0.669922 2.33008 0.669922H10.8301C11.9346 0.669922 12.8301 1.56535 12.8301 2.66992V11.1699C12.8301 12.2745 11.9346 13.1699 10.8301 13.1699H2.33008C1.22551 13.1699 0.330078 12.2745 0.330078 11.1699V2.66992ZM2.83008 10.6699V3.16992H10.3301V10.6699H2.83008Z" fill="white"/>
<path fill-rule="evenodd" clip-rule="evenodd" d="M0.330078 17.6699C0.330078 16.5654 1.22551 15.6699 2.33008 15.6699H10.8301C11.9346 15.6699 12.8301 16.5654 12.8301 17.6699V26.1699C12.8301 27.2745 11.9346 28.1699 10.8301 28.1699H2.33008C1.22551 28.1699 0.330078 27.2745 0.330078 26.1699V17.6699ZM2.83008 25.6699V18.1699H10.3301V25.6699H2.83008Z" fill="white"/>
<path fill-rule="evenodd" clip-rule="evenodd" d="M17.3301 0.669922C16.2255 0.669922 15.3301 1.56535 15.3301 2.66992V11.1699C15.3301 12.2745 16.2255 13.1699 17.3301 13.1699H25.8301C26.9346 13.1699 27.8301 12.2745 27.8301 11.1699V2.66992C27.8301 1.56535 26.9346 0.669922 25.8301 0.669922H17.3301ZM17.8301 3.16992V10.6699H25.3301V3.16992H17.8301Z" fill="white"/>
<path d="M17 15.75C17.6904 15.75 18.25 16.3096 18.25 17V27C18.25 27.6904 17.6904 28.25 17 28.25C16.3096 28.25 15.75 27.6904 15.75 27V17C15.75 16.3096 16.3096 15.75 17 15.75Z" fill="white"/>
<path d="M26 15.75C26.6904 15.75 27.25 16.3096 27.25 17V27C27.25 27.6904 26.6904 28.25 26 28.25C25.3096 28.25 24.75 27.6904 24.75 27V17C24.75 16.3096 25.3096 15.75 26 15.75Z" fill="white"/>
<path d="M21.5 22.25C22.1904 22.25 22.75 22.8096 22.75 23.5V27C22.75 27.6904 22.1904 28.25 21.5 28.25C20.8096 28.25 20.25 27.6904 20.25 27V23.5C20.25 22.8096 20.8096 22.25 21.5 22.25Z" fill="white"/>
<path d="M21.5 15.75C22.1904 15.75 22.75 16.3096 22.75 17V19.5C22.75 20.1904 22.1904 20.75 21.5 20.75C20.8096 20.75 20.25 20.1904 20.25 19.5V17C20.25 16.3096 20.8096 15.75 21.5 15.75Z" fill="white"/>
</svg>
