<svg width="22" height="26" viewBox="0 0 22 26" fill="none" xmlns="http://www.w3.org/2000/svg">
<path d="M6.25 6C6.25 7.10457 5.80228 8 5.25 8C4.69772 8 4.25 7.10457 4.25 6C4.25 4.89543 4.69772 4 5.25 4C5.80228 4 6.25 4.89543 6.25 6Z" fill="#161722"/>
<path d="M10.25 8C10.8023 8 11.25 7.10457 11.25 6C11.25 4.89543 10.8023 4 10.25 4C9.69772 4 9.25 4.89543 9.25 6C9.25 7.10457 9.69772 8 10.25 8Z" fill="#161722"/>
<path fill-rule="evenodd" clip-rule="evenodd" d="M0.5 2C0.5 0.895432 1.39542 0 2.5 0H13C13.7403 0 14.3866 0.402206 14.7324 1H20C21.1046 1 22 1.89543 22 3V24C22 25.1046 21.1046 26 20 26H5C3.89542 26 3 25.1046 3 24V16H2.5C1.39542 16 0.5 15.1046 0.5 14V2ZM2.5 1.5H13C13.2762 1.5 13.5 1.72386 13.5 2V14C13.5 14.2761 13.2762 14.5 13 14.5H2.5C2.22385 14.5 2 14.2761 2 14V2C2 1.72386 2.22385 1.5 2.5 1.5ZM4.5 16V24C4.5 24.2761 4.72385 24.5 5 24.5H20C20.2762 24.5 20.5 24.2761 20.5 24V3C20.5 2.72386 20.2762 2.5 20 2.5H15V14C15 15.1046 14.1046 16 13 16H4.5Z" fill="#161722"/>
</svg>
