<svg width="16" height="18" viewBox="0 0 16 18" fill="none" xmlns="http://www.w3.org/2000/svg">
<path fill-rule="evenodd" clip-rule="evenodd" d="M10.3505 1.24112C9.84346 0.806543 9.08441 0.847216 8.62674 1.33349L1.08975 9.34154C0.871519 9.57341 0.75 9.87982 0.75 10.1982V12.5C0.75 13.1903 1.30964 13.75 2 13.75H4.29289C4.62441 13.75 4.94236 13.6183 5.17678 13.3838L13.1485 5.41208C13.6634 4.89721 13.631 4.05299 13.0781 3.57912L10.3505 1.24112ZM2.25 10.2974L9.55548 2.53532L11.897 4.54232L4.18934 12.25H2.25V10.2974Z" fill="#86878B"/>
<path d="M1.5 16.25C1.08579 16.25 0.75 16.5857 0.75 17C0.75 17.4142 1.08579 17.75 1.5 17.75H15C15.4142 17.75 15.75 17.4142 15.75 17C15.75 16.5857 15.4142 16.25 15 16.25H1.5Z" fill="#86878B"/>
</svg>
