<svg width="18" height="18" viewBox="0 0 18 18" fill="none" xmlns="http://www.w3.org/2000/svg">
<path d="M0 2C0 0.89543 0.895431 0 2 0H5.5C5.77614 0 6 0.223858 6 0.5V1.5C6 1.77614 5.77614 2 5.5 2H2.5C2.22386 2 2 2.22386 2 2.5V5.5C2 5.77614 1.77614 6 1.5 6H0.5C0.223858 6 0 5.77614 0 5.5V2Z" fill="#161722"/>
<path d="M18 2C18 0.89543 17.1046 0 16 0H12.5C12.2239 0 12 0.223858 12 0.5V1.5C12 1.77614 12.2239 2 12.5 2H15.5C15.7761 2 16 2.22386 16 2.5V5.5C16 5.77614 16.2239 6 16.5 6H17.5C17.7761 6 18 5.77614 18 5.5V2Z" fill="#161722"/>
<path d="M16 18C17.1046 18 18 17.1046 18 16V12.5C18 12.2239 17.7761 12 17.5 12H16.5C16.2239 12 16 12.2239 16 12.5V15.5C16 15.7761 15.7761 16 15.5 16H12.5C12.2239 16 12 16.2239 12 16.5V17.5C12 17.7761 12.2239 18 12.5 18H16Z" fill="#161722"/>
<path d="M0 16C0 17.1046 0.895431 18 2 18H5.5C5.77614 18 6 17.7761 6 17.5V16.5C6 16.2239 5.77614 16 5.5 16H2.5C2.22386 16 2 15.7761 2 15.5V12.5C2 12.2239 1.77614 12 1.5 12H0.5C0.223858 12 0 12.2239 0 12.5V16Z" fill="#161722"/>
<path d="M17.5 10C17.7761 10 18 9.77614 18 9.5V8.5C18 8.22386 17.7761 8 17.5 8H0.5C0.223858 8 0 8.22386 0 8.5V9.5C0 9.77614 0.223858 10 0.5 10H17.5Z" fill="#161722"/>
</svg>
