<svg width="19" height="16" viewBox="0 0 19 16" fill="none" xmlns="http://www.w3.org/2000/svg">
<path fill-rule="evenodd" clip-rule="evenodd" d="M10.0464 4.40502C5.15401 5.10393 1.71919 9.88395 0.957756 14.1249C0.950209 14.1669 0.942924 14.2089 0.935904 14.2508C0.784291 15.1561 1.82468 15.5762 2.52463 14.9823C4.73825 13.104 6.53495 12.3186 8.37071 12.056C8.92165 11.9773 9.4761 11.9456 10.0464 11.9456L10.0464 14.9499C10.0464 15.6963 10.9489 16.0701 11.4767 15.5423L18.2649 8.75412C18.5867 8.43229 18.5927 7.9124 18.2785 7.58317L11.4903 0.471711C10.9684 -0.0750485 10.0464 0.294354 10.0464 1.05022V4.40502ZM11.7221 3.14138V5.13167C11.7221 5.54862 11.4155 5.90213 11.0027 5.96109L10.2834 6.06386C7.93818 6.39888 5.90031 7.92792 4.46177 10.0161C3.9432 10.7689 3.52317 11.5651 3.20515 12.3613C3.82834 11.9441 4.43903 11.5981 5.04681 11.3159C6.78359 10.5096 8.39759 10.2699 10.0464 10.2699H10.8842C11.347 10.2699 11.7221 10.645 11.7221 11.1077L11.7221 12.9272L16.5012 8.14806L11.7221 3.14138Z" fill="#86878B"/>
</svg>
