<svg width="22" height="20" viewBox="0 0 22 20" fill="none" xmlns="http://www.w3.org/2000/svg">
<path fill-rule="evenodd" clip-rule="evenodd" d="M11.4999 5.49977C5.66066 6.33395 1.56105 12.0391 0.652244 17.1008C0.643236 17.151 0.634542 17.2011 0.626162 17.2512C0.445206 18.3317 1.68696 18.8331 2.52238 18.1242C5.16444 15.8824 7.30888 14.9449 9.49994 14.6316C10.1575 14.5376 10.8193 14.4998 11.4999 14.4998L11.4999 18.0855C11.4999 18.9764 12.5771 19.4226 13.207 18.7927L21.3091 10.6906C21.6932 10.3065 21.7004 9.68599 21.3253 9.29304L13.2233 0.805189C12.6004 0.152606 11.4999 0.593505 11.4999 1.49566V5.49977ZM13.4999 3.99156V6.36706C13.4999 6.86471 13.134 7.28663 12.6413 7.35701L11.7828 7.47967C8.9837 7.87953 6.55141 9.70451 4.83444 12.1969C4.2155 13.0953 3.71418 14.0456 3.33461 14.996C4.07842 14.498 4.8073 14.0851 5.53272 13.7483C7.60564 12.7858 9.53202 12.4998 11.4999 12.4998H12.4999C13.0522 12.4998 13.4999 12.9475 13.4999 13.4998L13.4999 15.6713L19.204 9.96726L13.4999 3.99156Z" fill="#161722"/>
</svg>
