<svg width="72" height="23" viewBox="0 0 72 23" fill="none" xmlns="http://www.w3.org/2000/svg">
<g opacity="0.9" filter="url(#filter0_d_4_691)">
<path fill-rule="evenodd" clip-rule="evenodd" d="M17.5 5.42955C17.5 4.83554 16.9852 4.37248 16.3945 4.43513L8.89454 5.23055C8.38593 5.2845 8 5.71352 8 6.22498V13.7317C7.62497 13.5836 7.20011 13.5 6.75 13.5C5.23122 13.5 4 14.4514 4 15.625C4 16.7986 5.23122 17.75 6.75 17.75C8.22771 17.75 9.43319 16.8494 9.49732 15.7197H9.5V6.67475L16 5.98538V12.7317C15.625 12.5836 15.2001 12.5 14.75 12.5C13.2312 12.5 12 13.4514 12 14.625C12 15.7986 13.2312 16.75 14.75 16.75C16.2573 16.75 17.4813 15.813 17.4998 14.6516L17.5 14.625V5.42955ZM16 14.625C16 14.5971 15.9892 14.473 15.7774 14.3093C15.5638 14.1443 15.2056 14 14.75 14C14.2944 14 13.9362 14.1443 13.7226 14.3093C13.5108 14.473 13.5 14.5971 13.5 14.625C13.5 14.6529 13.5108 14.777 13.7226 14.9407C13.9362 15.1057 14.2944 15.25 14.75 15.25C15.2056 15.25 15.5638 15.1057 15.7774 14.9407C15.9892 14.777 16 14.6529 16 14.625ZM8 15.625C8 15.5971 7.98916 15.473 7.77737 15.3093C7.56379 15.1443 7.20556 15 6.75 15C6.29444 15 5.93621 15.1443 5.72263 15.3093C5.51084 15.473 5.5 15.5971 5.5 15.625C5.5 15.6529 5.51084 15.777 5.72263 15.9407C5.93621 16.1057 6.29444 16.25 6.75 16.25C7.20556 16.25 7.56379 16.1057 7.77737 15.9407C7.98916 15.777 8 15.6529 8 15.625Z" fill="white"/>
<path d="M27.3745 15.156C25.8319 15.156 24.6099 14.6967 23.7085 13.778L24.7095 12.374C25.4549 13.154 26.3735 13.544 27.4655 13.544C27.9422 13.544 28.3105 13.453 28.5705 13.271C28.8392 13.0803 28.9735 12.8507 28.9735 12.582C28.9735 12.348 28.8479 12.153 28.5965 11.997C28.3539 11.841 28.0462 11.7283 27.6735 11.659C27.3095 11.5897 26.9109 11.49 26.4775 11.36C26.0442 11.23 25.6412 11.0827 25.2685 10.918C24.9045 10.7533 24.5969 10.4933 24.3455 10.138C24.1029 9.78267 23.9815 9.34933 23.9815 8.838C23.9815 8.09267 24.2805 7.46867 24.8785 6.966C25.4765 6.45467 26.2739 6.199 27.2705 6.199C28.6485 6.199 29.7752 6.602 30.6505 7.408L29.6235 8.76C28.9389 8.12733 28.0982 7.811 27.1015 7.811C26.7115 7.811 26.4082 7.889 26.1915 8.045C25.9749 8.201 25.8665 8.41333 25.8665 8.682C25.8665 8.89 25.9879 9.06767 26.2305 9.215C26.4819 9.35367 26.7895 9.45767 27.1535 9.527C27.5262 9.59633 27.9249 9.70033 28.3495 9.839C28.7829 9.969 29.1815 10.1207 29.5455 10.294C29.9182 10.4587 30.2259 10.723 30.4685 11.087C30.7199 11.4423 30.8455 11.8713 30.8455 12.374C30.8455 13.206 30.5465 13.8777 29.9485 14.389C29.3592 14.9003 28.5012 15.156 27.3745 15.156ZM37.3795 14.207C36.7728 14.8397 35.9668 15.156 34.9615 15.156C33.9561 15.156 33.1501 14.8397 32.5435 14.207C31.9455 13.5657 31.6465 12.7813 31.6465 11.854C31.6465 10.9267 31.9455 10.1467 32.5435 9.514C33.1501 8.88133 33.9561 8.565 34.9615 8.565C35.9668 8.565 36.7728 8.88133 37.3795 9.514C37.9861 10.1467 38.2895 10.9267 38.2895 11.854C38.2895 12.7813 37.9861 13.5657 37.3795 14.207ZM33.7915 13.167C34.0775 13.5137 34.4675 13.687 34.9615 13.687C35.4555 13.687 35.8455 13.5137 36.1315 13.167C36.4261 12.8117 36.5735 12.374 36.5735 11.854C36.5735 11.3427 36.4261 10.9137 36.1315 10.567C35.8455 10.2117 35.4555 10.034 34.9615 10.034C34.4675 10.034 34.0775 10.2117 33.7915 10.567C33.5055 10.9137 33.3625 11.3427 33.3625 11.854C33.3625 12.374 33.5055 12.8117 33.7915 13.167ZM45.4033 15H43.7523V14.207C43.189 14.8397 42.4523 15.156 41.5423 15.156C40.8663 15.156 40.3593 14.9827 40.0213 14.636C39.6833 14.2893 39.5143 13.804 39.5143 13.18V8.721H41.1653V12.53C41.1653 13.3013 41.551 13.687 42.3223 13.687C42.903 13.687 43.3796 13.4487 43.7523 12.972V8.721H45.4033V15ZM52.9316 15H51.2806V11.204C51.2806 10.424 50.895 10.034 50.1236 10.034C49.5256 10.034 49.049 10.281 48.6936 10.775V15H47.0426V8.721H48.6936V9.54C49.2396 8.89 49.972 8.565 50.8906 8.565C51.5666 8.565 52.0736 8.74267 52.4116 9.098C52.7583 9.45333 52.9316 9.943 52.9316 10.567V15ZM60.551 15H58.887V14.194C58.3756 14.8353 57.73 15.156 56.95 15.156C56.1353 15.156 55.468 14.8657 54.948 14.285C54.428 13.6957 54.168 12.8897 54.168 11.867C54.168 10.8617 54.428 10.06 54.948 9.462C55.468 8.864 56.1353 8.565 56.95 8.565C57.7473 8.565 58.393 8.88567 58.887 9.527V6.329H60.551V15ZM57.457 13.687C57.7343 13.687 58.0073 13.622 58.276 13.492C58.5446 13.3533 58.7483 13.18 58.887 12.972V10.749C58.7483 10.541 58.5446 10.372 58.276 10.242C58.0073 10.1033 57.7343 10.034 57.457 10.034C56.989 10.034 56.6076 10.203 56.313 10.541C56.0183 10.879 55.871 11.321 55.871 11.867C55.871 12.4043 56.0183 12.842 56.313 13.18C56.6076 13.518 56.989 13.687 57.457 13.687ZM64.4501 15.156C63.9041 15.156 63.3798 15.0693 62.8771 14.896C62.3831 14.7227 61.9715 14.4843 61.6421 14.181L62.3571 13.024C62.5998 13.2493 62.9291 13.4487 63.3451 13.622C63.7611 13.7953 64.1555 13.882 64.5281 13.882C64.8748 13.882 65.1348 13.8213 65.3081 13.7C65.4901 13.5787 65.5811 13.414 65.5811 13.206C65.5811 13.05 65.4858 12.9243 65.2951 12.829C65.1131 12.725 64.8835 12.6513 64.6061 12.608C64.3375 12.5647 64.0385 12.4997 63.7091 12.413C63.3885 12.3263 63.0895 12.2223 62.8121 12.101C62.5435 11.9797 62.3138 11.789 62.1231 11.529C61.9411 11.2603 61.8501 10.931 61.8501 10.541C61.8501 9.98633 62.0798 9.51833 62.5391 9.137C62.9985 8.75567 63.6268 8.565 64.4241 8.565C65.3948 8.565 66.2398 8.851 66.9591 9.423L66.2961 10.554C66.0968 10.346 65.8281 10.1727 65.4901 10.034C65.1608 9.89533 64.8098 9.826 64.4371 9.826C64.1425 9.826 63.9041 9.88667 63.7221 10.008C63.5401 10.1207 63.4491 10.268 63.4491 10.45C63.4491 10.5887 63.5401 10.7057 63.7221 10.801C63.9041 10.8877 64.1338 10.9527 64.4111 10.996C64.6885 11.0393 64.9875 11.1087 65.3081 11.204C65.6288 11.2907 65.9278 11.399 66.2051 11.529C66.4825 11.6503 66.7121 11.8497 66.8941 12.127C67.0761 12.4043 67.1671 12.7423 67.1671 13.141C67.1671 13.7303 66.9245 14.2157 66.4391 14.597C65.9625 14.9697 65.2995 15.156 64.4501 15.156Z" fill="white"/>
</g>
<defs>
<filter id="filter0_d_4_691" x="0" y="0.759443" width="71.1671" height="21.3206" filterUnits="userSpaceOnUse" color-interpolation-filters="sRGB">
<feFlood flood-opacity="0" result="BackgroundImageFix"/>
<feColorMatrix in="SourceAlpha" type="matrix" values="0 0 0 0 0 0 0 0 0 0 0 0 0 0 0 0 0 0 127 0" result="hardAlpha"/>
<feOffset dy="0.33"/>
<feGaussianBlur stdDeviation="2"/>
<feColorMatrix type="matrix" values="0 0 0 0 0 0 0 0 0 0 0 0 0 0 0 0 0 0 0.2 0"/>
<feBlend mode="normal" in2="BackgroundImageFix" result="effect1_dropShadow_4_691"/>
<feBlend mode="normal" in="SourceGraphic" in2="effect1_dropShadow_4_691" result="shape"/>
</filter>
</defs>
</svg>
