<svg width="30" height="43" viewBox="0 0 30 43" fill="none" xmlns="http://www.w3.org/2000/svg">
<path d="M15 2.5C13.6868 2.5 12.3864 2.75866 11.1732 3.2612C9.95991 3.76375 8.85752 4.50035 7.92893 5.42893C7.00035 6.35752 6.26375 7.45991 5.7612 8.67317C5.25866 9.88642 5 11.1868 5 12.5C5 13.8132 5.25866 15.1136 5.7612 16.3268C6.26375 17.5401 7.00035 18.6425 7.92893 19.5711C8.85752 20.4997 9.95991 21.2362 11.1732 21.7388C12.0773 22.1133 13.0298 22.3524 14 22.4499V20.5C14 19.9477 14.4477 19.5 15 19.5C15.5523 19.5 16 19.9477 16 20.5L16 23.5C16 24.0523 15.5523 24.5 15 24.5C13.4241 24.5 11.8637 24.1896 10.4078 23.5866C8.95189 22.9835 7.62902 22.0996 6.51472 20.9853C5.40042 19.871 4.5165 18.5481 3.91345 17.0922C3.31039 15.6363 3 14.0759 3 12.5C3 10.9241 3.31039 9.36371 3.91345 7.9078C4.5165 6.45189 5.40042 5.12902 6.51472 4.01472C7.62902 2.90042 8.95189 2.0165 10.4078 1.41345C11.8637 0.810389 13.4241 0.5 15 0.5C15.5523 0.5 16 0.947715 16 1.5C16 2.05228 15.5523 2.5 15 2.5Z" fill="white"/>
<path d="M26.0413 12.7977C26.5898 12.8625 26.9819 13.3597 26.9171 13.9082C26.8483 14.4905 26.7369 15.0671 26.5838 15.6331C26.4396 16.1663 25.8905 16.4815 25.3574 16.3373C24.8242 16.1932 24.5089 15.6441 24.6531 15.1109C24.7807 14.6392 24.8736 14.1588 24.9309 13.6735C24.9957 13.125 25.4929 12.7329 26.0413 12.7977Z" fill="white"/>
<path d="M25.3958 6.50599C25.1199 6.02753 24.5084 5.86331 24.0299 6.13917C23.5515 6.41504 23.3873 7.02654 23.6631 7.50499C23.9072 7.92834 24.12 8.36901 24.2996 8.82346C24.5027 9.33706 25.0836 9.58882 25.5972 9.38577C26.1108 9.18272 26.3626 8.60176 26.1596 8.08815C25.944 7.54281 25.6887 7.014 25.3958 6.50599Z" fill="white"/>
<path d="M18.5923 2.05511C18.8184 1.55126 19.4102 1.32614 19.9141 1.55231C20.4491 1.79245 20.9657 2.07148 21.4599 2.38716C21.9253 2.68447 22.0616 3.30279 21.7643 3.76822C21.467 4.23365 20.8487 4.36994 20.3833 4.07263C19.9714 3.80957 19.5409 3.57704 19.0951 3.37692C18.5912 3.15076 18.3661 2.55896 18.5923 2.05511Z" fill="white"/>
<path d="M13.1146 14.4557C15.7486 16.3992 18.8627 8.45623 18.367 8.03066C17.8714 7.6051 10.4805 12.5122 13.1146 14.4557Z" fill="white"/>
<path fill-rule="evenodd" clip-rule="evenodd" d="M19.8663 19.2109C19.1941 19.2109 18.6206 19.6972 18.5107 20.3603L18.0896 22.9014C17.9509 23.7386 18.5966 24.5001 19.4452 24.5001H19.6941C20.373 24.5001 20.9501 24.0043 21.0524 23.3332L21.4398 20.7921C21.5667 19.9603 20.9229 19.2109 20.0815 19.2109H19.8663ZM20.0815 20.4609H19.8663C19.8056 20.4609 19.7538 20.5048 19.7439 20.5647L19.3228 23.1058C19.3103 23.1814 19.3686 23.2501 19.4452 23.2501H19.6941C19.7554 23.2501 19.8075 23.2053 19.8167 23.1448L20.2041 20.6037C20.2156 20.5286 20.1575 20.4609 20.0815 20.4609Z" fill="white"/>
<path d="M24.394 19.2109H22.309C22.2594 19.2109 22.2174 19.2472 22.2101 19.2962L21.4498 24.3853C21.4408 24.4458 21.4876 24.5001 21.5487 24.5001H22.4994C22.5482 24.5001 22.5899 24.4649 22.598 24.4168L22.9372 22.4097C22.9453 22.3616 22.987 22.3264 23.0358 22.3264H23.8432C23.8917 22.3264 23.9332 22.2916 23.9417 22.2438L24.0981 21.3628C24.109 21.3015 24.0618 21.2453 23.9996 21.2453H23.2493C23.1878 21.2453 23.1409 21.1905 23.1505 21.1298L23.2743 20.3417C23.2819 20.2931 23.3238 20.2572 23.373 20.2572H24.2388C24.287 20.2572 24.3284 20.2228 24.3371 20.1753L24.4923 19.329C24.5036 19.2675 24.4564 19.2109 24.394 19.2109Z" fill="white"/>
<path d="M27.1122 19.2109H25.0272C24.9777 19.2109 24.9356 19.2472 24.9283 19.2962L24.1681 24.3853C24.1591 24.4458 24.2059 24.5001 24.267 24.5001H25.2177C25.2665 24.5001 25.3082 24.4649 25.3163 24.4168L25.6554 22.4097C25.6636 22.3616 25.7052 22.3264 25.754 22.3264H26.5615C26.61 22.3264 26.6515 22.2916 26.66 22.2438L26.8163 21.3628C26.8272 21.3015 26.7801 21.2453 26.7179 21.2453H25.9675C25.9061 21.2453 25.8592 21.1905 25.8687 21.1298L25.9925 20.3417C26.0002 20.2931 26.0421 20.2572 26.0913 20.2572H26.957C27.0053 20.2572 27.0467 20.2228 27.0554 20.1753L27.2106 19.329C27.2218 19.2675 27.1747 19.2109 27.1122 19.2109Z" fill="white"/>
<path d="M3.65988 40.12C2.47322 40.12 1.53322 39.7667 0.839883 39.06L1.60988 37.98C2.18322 38.58 2.88988 38.88 3.72988 38.88C4.09655 38.88 4.37988 38.81 4.57988 38.67C4.78655 38.5233 4.88988 38.3467 4.88988 38.14C4.88988 37.96 4.79322 37.81 4.59988 37.69C4.41322 37.57 4.17655 37.4833 3.88988 37.43C3.60988 37.3767 3.30322 37.3 2.96988 37.2C2.63655 37.1 2.32655 36.9867 2.03988 36.86C1.75988 36.7333 1.52322 36.5333 1.32988 36.26C1.14322 35.9867 1.04988 35.6533 1.04988 35.26C1.04988 34.6867 1.27988 34.2067 1.73988 33.82C2.19988 33.4267 2.81322 33.23 3.57988 33.23C4.63988 33.23 5.50655 33.54 6.17988 34.16L5.38988 35.2C4.86322 34.7133 4.21655 34.47 3.44988 34.47C3.14988 34.47 2.91655 34.53 2.74988 34.65C2.58322 34.77 2.49988 34.9333 2.49988 35.14C2.49988 35.3 2.59322 35.4367 2.77988 35.55C2.97322 35.6567 3.20988 35.7367 3.48988 35.79C3.77655 35.8433 4.08322 35.9233 4.40988 36.03C4.74322 36.13 5.04988 36.2467 5.32988 36.38C5.61655 36.5067 5.85322 36.71 6.03988 36.99C6.23322 37.2633 6.32988 37.5933 6.32988 37.98C6.32988 38.62 6.09988 39.1367 5.63988 39.53C5.18655 39.9233 4.52655 40.12 3.65988 40.12ZM10.016 40.12C9.40931 40.12 8.91264 39.8733 8.52598 39.38V41.84H7.25598V35.17H8.52598V35.78C8.90598 35.2933 9.40264 35.05 10.016 35.05C10.6493 35.05 11.1626 35.2767 11.556 35.73C11.956 36.1767 12.156 36.7933 12.156 37.58C12.156 38.3667 11.956 38.9867 11.556 39.44C11.1626 39.8933 10.6493 40.12 10.016 40.12ZM9.61598 38.99C9.98264 38.99 10.276 38.86 10.496 38.6C10.7226 38.34 10.836 38 10.836 37.58C10.836 37.1667 10.7226 36.83 10.496 36.57C10.276 36.31 9.98264 36.18 9.61598 36.18C9.40931 36.18 9.20264 36.2333 8.99598 36.34C8.78931 36.4467 8.63264 36.5767 8.52598 36.73V38.44C8.63264 38.5933 8.78931 38.7233 8.99598 38.83C9.20931 38.9367 9.41598 38.99 9.61598 38.99ZM15.3561 40.12C14.6094 40.12 13.9927 39.8867 13.5061 39.42C13.0194 38.9533 12.7761 38.34 12.7761 37.58C12.7761 36.8667 13.0094 36.2667 13.4761 35.78C13.9494 35.2933 14.5494 35.05 15.2761 35.05C15.9961 35.05 16.5794 35.2967 17.0261 35.79C17.4727 36.2767 17.6961 36.9167 17.6961 37.71V37.99H14.1061C14.1461 38.31 14.2894 38.5767 14.5361 38.79C14.7827 39.0033 15.1027 39.11 15.4961 39.11C15.7094 39.11 15.9394 39.0667 16.1861 38.98C16.4394 38.8933 16.6394 38.7767 16.7861 38.63L17.3461 39.45C16.8594 39.8967 16.1961 40.12 15.3561 40.12ZM16.4661 37.13C16.4461 36.8567 16.3361 36.61 16.1361 36.39C15.9427 36.17 15.6561 36.06 15.2761 36.06C14.9161 36.06 14.6361 36.17 14.4361 36.39C14.2361 36.6033 14.1194 36.85 14.0861 37.13H16.4661ZM20.8834 40.12C20.1367 40.12 19.5201 39.8867 19.0334 39.42C18.5467 38.9533 18.3034 38.34 18.3034 37.58C18.3034 36.8667 18.5367 36.2667 19.0034 35.78C19.4767 35.2933 20.0767 35.05 20.8034 35.05C21.5234 35.05 22.1067 35.2967 22.5534 35.79C23.0001 36.2767 23.2234 36.9167 23.2234 37.71V37.99H19.6334C19.6734 38.31 19.8167 38.5767 20.0634 38.79C20.3101 39.0033 20.6301 39.11 21.0234 39.11C21.2367 39.11 21.4667 39.0667 21.7134 38.98C21.9667 38.8933 22.1667 38.7767 22.3134 38.63L22.8734 39.45C22.3867 39.8967 21.7234 40.12 20.8834 40.12ZM21.9934 37.13C21.9734 36.8567 21.8634 36.61 21.6634 36.39C21.4701 36.17 21.1834 36.06 20.8034 36.06C20.4434 36.06 20.1634 36.17 19.9634 36.39C19.7634 36.6033 19.6467 36.85 19.6134 37.13H21.9934ZM28.7407 40H27.4607V39.38C27.0674 39.8733 26.5707 40.12 25.9707 40.12C25.3441 40.12 24.8307 39.8967 24.4307 39.45C24.0307 38.9967 23.8307 38.3767 23.8307 37.59C23.8307 36.8167 24.0307 36.2 24.4307 35.74C24.8307 35.28 25.3441 35.05 25.9707 35.05C26.5841 35.05 27.0807 35.2967 27.4607 35.79V33.33H28.7407V40ZM26.3607 38.99C26.5741 38.99 26.7841 38.94 26.9907 38.84C27.1974 38.7333 27.3541 38.6 27.4607 38.44V36.73C27.3541 36.57 27.1974 36.44 26.9907 36.34C26.7841 36.2333 26.5741 36.18 26.3607 36.18C26.0007 36.18 25.7074 36.31 25.4807 36.57C25.2541 36.83 25.1407 37.17 25.1407 37.59C25.1407 38.0033 25.2541 38.34 25.4807 38.6C25.7074 38.86 26.0007 38.99 26.3607 38.99Z" fill="white"/>
</svg>
