<svg width="16" height="16" viewBox="0 0 16 16" fill="none" xmlns="http://www.w3.org/2000/svg">
<path fill-rule="evenodd" clip-rule="evenodd" d="M0.5 1.624C0.5 1.00323 1.0047 0.5 1.62727 0.5H6.41818C7.04076 0.5 7.54545 1.00323 7.54545 1.624V6.401C7.54545 7.02177 7.04076 7.525 6.41818 7.525H1.62727C1.0047 7.525 0.5 7.02177 0.5 6.401V1.624ZM1.90909 6.12V1.905H6.13636V6.12H1.90909Z" fill="#86878B"/>
<path fill-rule="evenodd" clip-rule="evenodd" d="M0.5 10.054C0.5 9.43323 1.0047 8.93 1.62727 8.93H6.41818C7.04076 8.93 7.54545 9.43323 7.54545 10.054V14.831C7.54545 15.4518 7.04076 15.955 6.41818 15.955H1.62727C1.0047 15.955 0.5 15.4518 0.5 14.831V10.054ZM1.90909 14.55V10.335H6.13636V14.55H1.90909Z" fill="#86878B"/>
<path fill-rule="evenodd" clip-rule="evenodd" d="M10.0818 0.5C9.45924 0.5 8.95455 1.00323 8.95455 1.624V6.401C8.95455 7.02177 9.45924 7.525 10.0818 7.525H14.8727C15.4953 7.525 16 7.02177 16 6.401V1.624C16 1.00323 15.4953 0.5 14.8727 0.5H10.0818ZM10.3636 1.905V6.12H14.5909V1.905H10.3636Z" fill="#86878B"/>
<path d="M9.89577 8.975C10.2849 8.975 10.6003 9.28952 10.6003 9.6775V15.2975C10.6003 15.6855 10.2849 16 9.89577 16C9.50666 16 9.19123 15.6855 9.19123 15.2975V9.6775C9.19123 9.28952 9.50666 8.975 9.89577 8.975Z" fill="#86878B"/>
<path d="M14.9685 8.975C15.3576 8.975 15.673 9.28952 15.673 9.6775V15.2975C15.673 15.6855 15.3576 16 14.9685 16C14.5794 16 14.264 15.6855 14.264 15.2975V9.6775C14.264 9.28952 14.5794 8.975 14.9685 8.975Z" fill="#86878B"/>
<path d="M12.4321 8.975C12.8212 8.975 13.1367 9.28952 13.1367 9.6775V15.2975C13.1367 15.6855 12.8212 16 12.4321 16C12.043 16 11.7276 15.6855 11.7276 15.2975V9.6775C11.7276 9.28952 12.043 8.975 12.4321 8.975Z" fill="#86878B"/>
</svg>
