<svg width="28" height="43" viewBox="0 0 28 43" fill="none" xmlns="http://www.w3.org/2000/svg">
<path d="M10 1.5C10 0.947715 10.4477 0.5 11 0.5H17.5C18.0523 0.5 18.5 0.947715 18.5 1.5C18.5 2.05228 18.0523 2.5 17.5 2.5H11C10.4477 2.5 10 2.05228 10 1.5Z" fill="white"/>
<path d="M22.4556 4.05274C22.8573 4.43179 22.8756 5.06469 22.4965 5.46636L21.2624 6.77413C22.2201 7.67241 23.0004 8.75029 23.5556 9.95241C23.7871 10.4538 23.5684 11.048 23.067 11.2795C22.5656 11.5111 21.9714 11.2924 21.7398 10.791C21.0902 9.38433 20.0576 8.18905 18.7602 7.34201C17.4629 6.49496 15.9532 6.03037 14.4041 6.00144C12.8549 5.97251 11.329 6.3804 10.0009 7.17842C8.67278 7.97643 7.59625 9.13231 6.89455 10.5137C6.19286 11.8951 5.89435 13.4462 6.0332 14.9894C6.17206 16.5325 6.74267 18.0054 7.6797 19.2393C8.61673 20.4733 9.88231 21.4184 11.3315 21.9665C12.7807 22.5146 14.355 22.6436 15.8741 22.3386C16.4156 22.2298 16.9427 22.5807 17.0514 23.1221C17.1601 23.6636 16.8093 24.1907 16.2678 24.2994C14.3805 24.6784 12.4246 24.5182 10.624 23.8372C8.82347 23.1562 7.25109 21.982 6.0869 20.4489C4.92271 18.9158 4.21377 17.0859 4.04125 15.1686C3.86873 13.2513 4.23961 11.3242 5.11142 9.60794C5.98322 7.89166 7.32072 6.45557 8.97077 5.46409C10.6208 4.47262 12.5167 3.96584 14.4414 4.00179C16.2928 4.03636 18.0989 4.57178 19.6684 5.54922L21.042 4.0937C21.421 3.69203 22.0539 3.67369 22.4556 4.05274Z" fill="white"/>
<path d="M15.5 10C15.5 9.44771 15.0523 9 14.5 9C13.9477 9 13.5 9.44771 13.5 10V14.0401L10.3492 16.7407C9.92989 17.1002 9.88133 17.7315 10.2407 18.1508C10.6002 18.5701 11.2315 18.6187 11.6508 18.2593L15.5 14.9599V10Z" fill="white"/>
<path d="M22.4802 16.1598C22.4026 16.2985 22.368 16.4572 22.3806 16.6157C22.4244 17.1662 22.0137 17.6481 21.4631 17.6919C20.9126 17.7358 20.4308 17.325 20.3869 16.7745C20.3429 16.2217 20.4638 15.6682 20.7343 15.1841C21.0048 14.7 21.4128 14.307 21.9067 14.0548C22.4006 13.8026 22.9581 13.7025 23.5089 13.7672C24.0597 13.8319 24.5789 14.0584 25.0009 14.4182C25.4229 14.7779 25.7288 15.2547 25.8798 15.7883C26.0308 16.3219 26.0202 16.8883 25.8493 17.4159C25.7588 17.6952 25.6256 17.957 25.4556 18.1926C25.8339 18.5245 26.1327 18.94 26.3268 19.4085C26.5761 20.0105 26.6414 20.6729 26.5142 21.312C26.3871 21.9511 26.0733 22.5382 25.6126 22.9989C25.1518 23.4597 24.5648 23.7735 23.9257 23.9006C23.2866 24.0277 22.6241 23.9625 22.0221 23.7131C21.4201 23.4637 20.9056 23.0415 20.5435 22.4997C20.1815 21.9579 19.9883 21.3209 19.9883 20.6693C19.9883 20.117 20.436 19.6693 20.9883 19.6693C21.5406 19.6693 21.9883 20.117 21.9883 20.6693C21.9883 20.9253 22.0642 21.1756 22.2065 21.3885C22.3487 21.6014 22.5509 21.7674 22.7875 21.8653C23.024 21.9633 23.2844 21.989 23.5355 21.939C23.7866 21.8891 24.0173 21.7658 24.1984 21.5847C24.3794 21.4036 24.5027 21.173 24.5527 20.9218C24.6026 20.6707 24.577 20.4104 24.479 20.1738C24.381 19.9373 24.2151 19.7351 24.0022 19.5928C23.7893 19.4506 23.539 19.3746 23.2829 19.3746C22.7306 19.3746 22.2829 18.9269 22.2829 18.3746C22.2829 17.9975 22.4916 17.6692 22.7999 17.4988C22.9306 17.418 23.082 17.3662 23.2457 17.3532C23.4042 17.3406 23.5554 17.2812 23.6801 17.1827C23.8049 17.0842 23.8976 16.9508 23.9466 16.7996C23.9956 16.6483 23.9987 16.486 23.9554 16.333C23.9121 16.18 23.8244 16.0433 23.7034 15.9402C23.5824 15.837 23.4336 15.7721 23.2757 15.7535C23.1178 15.735 22.9579 15.7637 22.8163 15.836C22.6747 15.9083 22.5578 16.021 22.4802 16.1598Z" fill="white"/>
<path d="M4.13195 40H2.70195V34.58H0.751953V33.33H6.07195V34.58H4.13195V40ZM7.58227 34.65C7.3756 34.65 7.1956 34.5767 7.04227 34.43C6.8956 34.2767 6.82227 34.0967 6.82227 33.89C6.82227 33.6833 6.8956 33.5067 7.04227 33.36C7.1956 33.2133 7.3756 33.14 7.58227 33.14C7.7956 33.14 7.9756 33.2133 8.12227 33.36C8.26893 33.5067 8.34227 33.6833 8.34227 33.89C8.34227 34.0967 8.26893 34.2767 8.12227 34.43C7.9756 34.5767 7.7956 34.65 7.58227 34.65ZM8.22227 40H6.95227V35.17H8.22227V40ZM16.7516 40H15.4716V36.95C15.4716 36.4367 15.2316 36.18 14.7516 36.18C14.5449 36.18 14.3516 36.2367 14.1716 36.35C13.9982 36.4633 13.8582 36.5933 13.7516 36.74V40H12.4716V36.95C12.4716 36.4367 12.2316 36.18 11.7516 36.18C11.5516 36.18 11.3616 36.2367 11.1816 36.35C11.0016 36.4633 10.8582 36.5967 10.7516 36.75V40H9.48156V35.17H10.7516V35.8C10.8716 35.6267 11.0816 35.46 11.3816 35.3C11.6816 35.1333 11.9982 35.05 12.3316 35.05C13.0316 35.05 13.4782 35.3433 13.6716 35.93C13.8249 35.69 14.0516 35.4833 14.3516 35.31C14.6582 35.1367 14.9849 35.05 15.3316 35.05C15.7849 35.05 16.1349 35.1733 16.3816 35.42C16.6282 35.66 16.7516 36.0233 16.7516 36.51V40ZM20.2672 40.12C19.5205 40.12 18.9039 39.8867 18.4172 39.42C17.9305 38.9533 17.6872 38.34 17.6872 37.58C17.6872 36.8667 17.9205 36.2667 18.3872 35.78C18.8605 35.2933 19.4605 35.05 20.1872 35.05C20.9072 35.05 21.4905 35.2967 21.9372 35.79C22.3839 36.2767 22.6072 36.9167 22.6072 37.71V37.99H19.0172C19.0572 38.31 19.2005 38.5767 19.4472 38.79C19.6939 39.0033 20.0139 39.11 20.4072 39.11C20.6205 39.11 20.8505 39.0667 21.0972 38.98C21.3505 38.8933 21.5505 38.7767 21.6972 38.63L22.2572 39.45C21.7705 39.8967 21.1072 40.12 20.2672 40.12ZM21.3772 37.13C21.3572 36.8567 21.2472 36.61 21.0472 36.39C20.8539 36.17 20.5672 36.06 20.1872 36.06C19.8272 36.06 19.5472 36.17 19.3472 36.39C19.1472 36.6033 19.0305 36.85 18.9972 37.13H21.3772ZM24.7945 40H23.5245V35.17H24.7945V35.83C24.9745 35.6033 25.2045 35.4167 25.4845 35.27C25.7645 35.1233 26.0479 35.05 26.3345 35.05V36.29C26.2479 36.27 26.1312 36.26 25.9845 36.26C25.7712 36.26 25.5445 36.3133 25.3045 36.42C25.0645 36.5267 24.8945 36.6567 24.7945 36.81V40Z" fill="white"/>
</svg>
