<svg width="25" height="21" viewBox="0 0 25 21" fill="none" xmlns="http://www.w3.org/2000/svg">
<path d="M12.4999 6.24995C12.9142 6.24995 13.2499 6.58573 13.2499 6.99995V12.9999C13.2499 13.4142 12.9142 13.7499 12.4999 13.7499C12.0857 13.7499 11.7499 13.4142 11.7499 12.9999V6.99995C11.7499 6.58573 12.0857 6.24995 12.4999 6.24995Z" fill="#161722"/>
<path d="M12.4999 16.4999C13.0522 16.4999 13.4999 16.0522 13.4999 15.4999C13.4999 14.9477 13.0522 14.4999 12.4999 14.4999C11.9477 14.4999 11.4999 14.9477 11.4999 15.4999C11.4999 16.0522 11.9477 16.4999 12.4999 16.4999Z" fill="#161722"/>
<path fill-rule="evenodd" clip-rule="evenodd" d="M10.9993 1.04324C11.679 -0.0896072 13.3208 -0.0896072 14.0005 1.04324L24.2344 18.0996C24.9342 19.266 24.094 20.7499 22.7337 20.7499H2.26613C0.905865 20.7499 0.0656666 19.266 0.765519 18.0996L10.9993 1.04324ZM12.7143 1.81498C12.6172 1.65314 12.3827 1.65314 12.2856 1.81498L2.05176 18.8713C1.95178 19.038 2.0718 19.2499 2.26613 19.2499H22.7337C22.9281 19.2499 23.0481 19.038 22.9481 18.8713L12.7143 1.81498Z" fill="#161722"/>
</svg>
