<svg width="41" height="41" viewBox="0 0 41 41" fill="none" xmlns="http://www.w3.org/2000/svg">
<mask id="mask0_4_708" style="mask-type:alpha" maskUnits="userSpaceOnUse" x="6" y="6" width="29" height="28">
<rect x="6.5" y="6" width="28" height="28" fill="#9DC8EB"/>
</mask>
<g mask="url(#mask0_4_708)">
<rect x="6.5" y="6" width="28" height="28" fill="#9DC8EB"/>
<circle cx="23.8398" cy="12.4457" r="3.78606" fill="#FEF8AE"/>
<path d="M29.0808 22.8293C28.1232 22.8293 27.2217 23.2545 26.4011 23.8769C25.579 24.5003 24.8016 25.3491 24.0822 26.2633C23.3611 27.1796 22.6845 28.1799 22.0693 29.1164C21.907 29.3634 21.7496 29.6051 21.5968 29.8396C21.1655 30.5018 20.7716 31.1064 20.4124 31.6107L20.3184 31.7428V39.9875H48.6813L47.6223 39.0996C45.0265 36.9231 42.4363 34.1286 39.9624 31.4597C39.1394 30.5718 38.3293 29.6978 37.5361 28.865C35.9582 27.2084 34.4452 25.7139 33.0486 24.632C31.6698 23.5637 30.3205 22.8294 29.0808 22.8293Z" fill="#D6B488"/>
<path d="M29.1162 22.8306C28.1464 22.7575 27.2335 23.1568 26.4083 23.7706C25.5825 24.3849 24.8028 25.2446 24.0831 26.1743C23.3612 27.1066 22.6836 28.1304 22.0681 29.0855C21.9298 29.3002 21.795 29.5108 21.6636 29.7159C21.2054 30.4317 20.7891 31.0817 20.4124 31.6107L20.3184 31.7428V39.9875H44.7132L43.8256 39.1238C40.9129 36.2898 38.47 32.9206 36.3327 29.9729C36.0309 29.5566 35.7351 29.1486 35.445 28.7519C34.2805 27.1592 33.1981 25.734 32.1834 24.6899C31.1858 23.6635 30.1655 22.9098 29.1162 22.8306Z" fill="#C89577"/>
<path d="M14.3147 20.4136C13.3274 20.4136 12.3979 20.8388 11.5519 21.4611C10.7044 22.0845 9.90284 22.9333 9.16119 23.8475C8.41779 24.7639 7.72021 25.7641 7.08594 26.7006C6.91863 26.9477 6.75631 27.1893 6.59885 27.4238C6.15413 28.086 5.74805 28.6906 5.37774 29.195L5.28076 29.327V37.5717H34.5223L33.4305 36.6838C30.7543 34.5073 28.0838 31.7128 25.5333 29.0439C24.6848 28.156 23.8496 27.282 23.0319 26.4493C21.4051 24.7927 19.8452 23.2982 18.4054 22.2162C16.9838 21.1479 15.5927 20.4136 14.3147 20.4136Z" fill="#D6B488"/>
<path d="M14.3511 20.4149C13.3513 20.3417 12.4101 20.741 11.5594 21.3548C10.708 21.9691 9.90417 22.8289 9.16208 23.7585C8.41787 24.6908 7.71927 25.7147 7.08473 26.6698C6.9421 26.8844 6.80312 27.095 6.6677 27.3001C6.19523 28.0159 5.76613 28.666 5.37774 29.1949L5.28076 29.327V37.5717H30.4313L29.5162 36.7081C26.5133 33.8741 23.9947 30.5049 21.7912 27.5571C21.48 27.1409 21.175 26.7329 20.876 26.3361C19.6754 24.7434 18.5595 23.3182 17.5133 22.2741C16.4849 21.2477 15.4329 20.494 14.3511 20.4149Z" fill="#C89577"/>
</g>
<g filter="url(#filter0_d_4_708)">
<rect x="5.5" y="5" width="30" height="30" rx="3" stroke="white" stroke-width="2"/>
</g>
<defs>
<filter id="filter0_d_4_708" x="0.5" y="0.33" width="40" height="40" filterUnits="userSpaceOnUse" color-interpolation-filters="sRGB">
<feFlood flood-opacity="0" result="BackgroundImageFix"/>
<feColorMatrix in="SourceAlpha" type="matrix" values="0 0 0 0 0 0 0 0 0 0 0 0 0 0 0 0 0 0 127 0" result="hardAlpha"/>
<feOffset dy="0.33"/>
<feGaussianBlur stdDeviation="2"/>
<feColorMatrix type="matrix" values="0 0 0 0 0 0 0 0 0 0 0 0 0 0 0 0 0 0 0.2 0"/>
<feBlend mode="normal" in2="BackgroundImageFix" result="effect1_dropShadow_4_708"/>
<feBlend mode="normal" in="SourceGraphic" in2="effect1_dropShadow_4_708" result="shape"/>
</filter>
</defs>
</svg>
