<svg width="30" height="22" viewBox="0 0 30 22" fill="none" xmlns="http://www.w3.org/2000/svg">
<path fill-rule="evenodd" clip-rule="evenodd" d="M3 2C2.44772 2 2 2.44772 2 3V19C2 19.5523 2.44772 20 3 20H19.5C20.0523 20 20.5 19.5523 20.5 19V3C20.5 2.44772 20.0523 2 19.5 2H3ZM0 3C0 1.34315 1.34315 0 3 0H19.5C21.1569 0 22.5 1.34315 22.5 3V7.41938L28.3753 2.71913C29.0301 2.19532 30 2.66149 30 3.5V18.5C30 19.3385 29.0301 19.8047 28.3753 19.2809L22.5 14.5806V19C22.5 20.6569 21.1569 22 19.5 22H3C1.34315 22 0 20.6569 0 19V3ZM22.5 12.0194L28 16.4194V5.58062L22.5 9.98062V12.0194Z" fill="#161722"/>
</svg>
