<svg width="47" height="47" viewBox="0 0 47 47" fill="none" xmlns="http://www.w3.org/2000/svg">
<circle cx="23.5" cy="23.5" r="23.5" fill="#65D072"/>
<path fill-rule="evenodd" clip-rule="evenodd" d="M30.3602 25.2034C30.0298 25.0381 28.4056 24.2391 28.1027 24.129C27.7999 24.0188 27.5798 23.9636 27.3595 24.2943C27.1393 24.6249 26.5062 25.3687 26.3134 25.5892C26.1208 25.8095 25.9281 25.8372 25.5977 25.6718C25.2673 25.5065 24.2029 25.1578 22.9411 24.0326C21.959 23.157 21.296 22.0754 21.1032 21.7448C20.9106 21.4142 21.0827 21.2354 21.2482 21.0708C21.3967 20.9229 21.5785 20.6851 21.7437 20.4922C21.9088 20.2993 21.9639 20.1616 22.074 19.9412C22.1841 19.7208 22.1291 19.5279 22.0465 19.3626C21.9639 19.1973 21.3032 17.5718 21.0279 16.9105C20.7598 16.2666 20.4874 16.3537 20.2846 16.3436C20.0921 16.334 19.8717 16.332 19.6515 16.332C19.4312 16.332 19.0734 16.4147 18.7705 16.7452C18.4677 17.0759 17.6143 17.8749 17.6143 19.5004C17.6143 21.1259 18.7981 22.6963 18.9632 22.9167C19.1284 23.1372 21.2928 26.4729 24.6067 27.9034C25.3949 28.2437 26.0103 28.4469 26.49 28.5992C27.2814 28.8505 28.0016 28.815 28.5708 28.73C29.2055 28.6352 30.5254 27.931 30.8007 27.1596C31.0759 26.3882 31.0759 25.7269 30.9933 25.5892C30.9108 25.4514 30.6905 25.3687 30.3602 25.2034ZM24.3324 33.4311H24.328C22.3561 33.4303 20.422 32.9008 18.7348 31.8999L18.3335 31.6617L14.1744 32.7524L15.2845 28.6986L15.0232 28.283C13.9232 26.5339 13.3422 24.5123 13.3431 22.4365C13.3455 16.3795 18.2752 11.4517 24.3368 11.4517C27.272 11.4528 30.0311 12.597 32.1059 14.6734C34.1806 16.7499 35.3226 19.5101 35.3215 22.4454C35.319 28.5029 30.3893 33.4311 24.3324 33.4311ZM33.6851 13.0956C31.1888 10.5973 27.8692 9.2208 24.3324 9.2194C17.0449 9.2194 11.1138 15.1482 11.1109 22.4357C11.1099 24.7652 11.7187 27.0392 12.8757 29.0435L11 35.8926L18.0089 34.0547C19.94 35.1076 22.1143 35.6625 24.3271 35.6634H24.3325H24.3326C31.6193 35.6634 37.5509 29.7339 37.5539 22.4463C37.5552 18.9147 36.1813 15.5939 33.6851 13.0956Z" fill="white"/>
</svg>
